<svg id="Group_1054" data-name="Group 1054" xmlns="http://www.w3.org/2000/svg" width="98.132" height="20.295" viewBox="0 0 98.132 20.295">
  <g id="Group_5" data-name="Group 5">
    <g id="Group_2" data-name="Group 2">
      <g id="Group_1" data-name="Group 1">
        <path id="Path_1" data-name="Path 1" d="M552.412,6950.7a10.147,10.147,0,0,1-7.175-17.322,9.693,9.693,0,0,1,7.175-2.973v5.074h5.074a5.144,5.144,0,0,1,5.074,5.074v5.074a5.075,5.075,0,0,1-5.074,5.074Z" transform="translate(-542.265 -6930.407)" fill="#fff"/>
      </g>
    </g>
    <g id="Group_4" data-name="Group 4" transform="translate(24.468 2.482)">
      <g id="Group_3" data-name="Group 3">
        <path id="Path_2" data-name="Path 2" d="M759.188,6988.775h2.394v10.485h-2.394v-1.294a4.384,4.384,0,0,1-3.418,1.545,4.847,4.847,0,0,1-3.727-1.583,5.615,5.615,0,0,1-1.468-3.958,5.411,5.411,0,0,1,1.468-3.9,4.982,4.982,0,0,1,3.727-1.544,4.411,4.411,0,0,1,3.418,1.583Zm-.811,2.974a3.123,3.123,0,0,0-4.441,0,3.454,3.454,0,0,0,0,4.537,3.123,3.123,0,0,0,4.441,0,3.4,3.4,0,0,0,0-4.537Z" transform="translate(-750.576 -6984.179)" fill="#fff"/>
        <path id="Path_3" data-name="Path 3" d="M868.656,6969.663h-2.51v-14.675h2.51Z" transform="translate(-852.572 -6954.582)" fill="#fff"/>
        <path id="Path_4" data-name="Path 4" d="M909.685,6972.671a5.2,5.2,0,0,1-3.032.869c-2.375,0-3.592-1.41-3.592-4.094v-4.519h-1.738V6962.8H903.1V6959.1h2.491v3.708h3.514v2.124h-3.514v4.422c0,1.255.5,1.893,1.525,1.893a3.383,3.383,0,0,0,1.777-.541Z" transform="translate(-883.618 -6958.208)" fill="#fff"/>
        <path id="Path_5" data-name="Path 5" d="M986.379,7001.146h-2.53v-10.485h2.53Z" transform="translate(-956.449 -6986.065)" fill="#fff"/>
        <path id="Path_6" data-name="Path 6" d="M1027.082,6969.663v-14.675h2.452v5.542a3.885,3.885,0,0,1,3.321-1.622,4.008,4.008,0,0,1,2.877,1.139,4.224,4.224,0,0,1,1.2,3.225v6.392h-2.51v-5.716c0-1.757-.908-2.742-2.3-2.742a2.547,2.547,0,0,0-2.53,2.78v5.677Z" transform="translate(-994.604 -6954.582)" fill="#fff"/>
        <path id="Path_7" data-name="Path 7" d="M1135.48,6988.775h2.394v10.485h-2.394v-1.294a4.383,4.383,0,0,1-3.418,1.545,4.847,4.847,0,0,1-3.727-1.583,5.615,5.615,0,0,1-1.468-3.958,5.411,5.411,0,0,1,1.468-3.9,4.982,4.982,0,0,1,3.727-1.544,4.41,4.41,0,0,1,3.418,1.583Zm-.811,2.974a3.123,3.123,0,0,0-4.441,0,3.453,3.453,0,0,0,0,4.537,3.123,3.123,0,0,0,4.441,0,3.4,3.4,0,0,0,0-4.537Z" transform="translate(-1082.67 -6984.179)" fill="#fff"/>
        <path id="Path_8" data-name="Path 8" d="M1242.437,6999.114v-10.485h2.414v1.448a3.151,3.151,0,0,1,2.916-1.718,3.815,3.815,0,0,1,1.255.212l-.213,2.414a4.033,4.033,0,0,0-1.216-.213c-1.564,0-2.645,1.043-2.645,3.225v5.117Z" transform="translate(-1184.665 -6984.034)" fill="#fff"/>
        <path id="Path_9" data-name="Path 9" d="M1308.256,6955.705v.425h3.283v2.124h-3.283v8.361h-2.51v-8.361h-1.66v-2.124h1.66v-.483a3.83,3.83,0,0,1,4.171-4.113,6.048,6.048,0,0,1,2.819.715l-.792,1.969a4.278,4.278,0,0,0-1.68-.424A1.768,1.768,0,0,0,1308.256,6955.705Z" transform="translate(-1239.072 -6951.534)" fill="#fff"/>
      </g>
    </g>
  </g>
</svg>
