<svg xmlns="http://www.w3.org/2000/svg" xmlns:xlink="http://www.w3.org/1999/xlink" width="2015.364" height="1511.637" viewBox="0 0 2015.364 1511.637">
  <defs>
    <clipPath id="clip-path">
      <rect id="Rectangle_415" data-name="Rectangle 415" width="2015.365" height="1511.637"/>
    </clipPath>
  </defs>
  <g id="Group_990" data-name="Group 990" transform="translate(18.742 182.818)" opacity="0.022">
    <g id="Group_1053" data-name="Group 1053" transform="translate(-178.742 -122.818)">
      <g id="Group_990-2" data-name="Group 990" transform="translate(664.987 394.751)">
        <path id="Path_1777" data-name="Path 1777" d="M670.474,479.877a109.722,109.722,0,0,1-109.594-109.6V301h37.791v69.275a71.888,71.888,0,0,0,71.8,71.812Z" transform="translate(-560.88 -301)"/>
      </g>
      <g id="Group_1002" data-name="Group 1002" transform="translate(160 -60)">
        <g id="Group_1001" data-name="Group 1001" clip-path="url(#clip-path)">
          <g id="Group_991" data-name="Group 991" transform="translate(365.161 689.449)">
            <path id="Path_1778" data-name="Path 1778" d="M487.671,742.637H449.88V634.2c0-34.61,13.34-68.409,37.564-95.169,23.423-25.875,56.138-44.244,92.12-51.721l7.687,37c-28.2,5.859-53.7,20.093-71.79,40.08-18.181,20.085-27.79,44.223-27.79,69.807Z" transform="translate(-449.88 -487.313)"/>
          </g>
          <g id="Group_992" data-name="Group 992" transform="translate(1635.566 536.001)">
            <path id="Path_1779" data-name="Path 1779" d="M1729.612,528.077c-7.345-35.251-25.214-67.141-50.316-89.795-25.363-22.891-55.881-34.991-88.257-34.991H1458.38V365.5h132.658c41.284,0,81.619,15.884,113.578,44.727,31.007,27.985,53.022,67.1,61.991,110.14Z" transform="translate(-1458.38 -365.5)"/>
          </g>
          <g id="Group_993" data-name="Group 993" transform="translate(1888.135 326.262)">
            <path id="Path_1780" data-name="Path 1780" d="M1737.611,399.292c-43.413,0-78.731-35.206-78.731-78.479V277.479c0-43.273,35.318-78.479,78.731-78.479s78.731,35.206,78.731,78.479v43.334C1816.342,364.086,1781.024,399.292,1737.611,399.292Zm0-162.5a40.861,40.861,0,0,0-40.94,40.688v43.334a40.941,40.941,0,0,0,81.88,0V277.479A40.861,40.861,0,0,0,1737.611,236.791Z" transform="translate(-1658.88 -199)"/>
          </g>
          <g id="Group_994" data-name="Group 994" transform="translate(576.79 102.035)">
            <path id="Path_1781" data-name="Path 1781" d="M726.213,382.533H688.422V129.582A70.748,70.748,0,0,0,617.88,58.791V21c59.735,0,108.334,48.71,108.334,108.582Z" transform="translate(-617.88 -21)"/>
          </g>
          <g id="Group_995" data-name="Group 995" transform="translate(1453.54 212.889)">
            <path id="Path_1782" data-name="Path 1782" d="M1373.086,227.412a59.206,59.206,0,1,1,59.206-59.206A59.273,59.273,0,0,1,1373.086,227.412Zm0-80.621a21.415,21.415,0,1,0,21.415,21.415A21.439,21.439,0,0,0,1373.086,146.791Z" transform="translate(-1313.88 -109)"/>
          </g>
          <g id="Group_996" data-name="Group 996" transform="translate(1377.958 138.567)">
            <path id="Path_1783" data-name="Path 1783" d="M1388.668,315.8V278.005c53.484,0,97-42.665,97-95.107s-43.512-95.107-97-95.107-97,42.665-97,95.107H1253.88c0-73.28,60.465-132.9,134.788-132.9s134.788,59.618,134.788,132.9S1462.99,315.8,1388.668,315.8Z" transform="translate(-1253.88 -50)"/>
          </g>
          <g id="Group_997" data-name="Group 997" transform="translate(1250.728 65.504)">
            <path id="Path_1784" data-name="Path 1784" d="M1219.014,124.268a66.134,66.134,0,0,1,0-132.268V29.791a28.343,28.343,0,1,0,28.343,28.343V10.9h37.791V58.134A66.209,66.209,0,0,1,1219.014,124.268Z" transform="translate(-1152.88 8)"/>
          </g>
          <g id="Group_998" data-name="Group 998" transform="translate(1056.735 912.021)">
            <path id="Path_1785" data-name="Path 1785" d="M1072.572,903.342c-40.634,0-73.692-32.847-73.692-73.22s33.058-73.209,73.692-73.209V794.7c-19.8,0-35.9,15.889-35.9,35.418s16.105,35.429,35.9,35.429,35.9-15.894,35.9-35.429V664h37.791V830.123C1146.265,870.5,1113.206,903.342,1072.572,903.342Z" transform="translate(-998.88 -664)"/>
          </g>
          <g id="Group_999" data-name="Group 999" transform="translate(801.016 1325.202)">
            <path id="Path_1786" data-name="Path 1786" d="M960.8,1129.307c-37.569,0-68.136-30.8-68.136-68.654h37.791c0,17.019,13.614,30.863,30.345,30.863s30.334-13.844,30.334-30.863-13.607-30.863-30.334-30.863H795.88V992H960.8c37.564,0,68.125,30.8,68.125,68.653S998.364,1129.307,960.8,1129.307Z" transform="translate(-795.88 -992)"/>
          </g>
          <g id="Group_1000" data-name="Group 1000" transform="translate(644.814 1394.485)">
            <path id="Path_1787" data-name="Path 1787" d="M862.356,1178.009H737.122a65.5,65.5,0,0,1,0-131.009H862.356a65.5,65.5,0,0,1,0,131.009Zm-125.234-93.218a27.715,27.715,0,0,0,0,55.427H862.356a27.715,27.715,0,0,0,0-55.427Z" transform="translate(-671.88 -1047)"/>
          </g>
        </g>
      </g>
      <g id="Group_1003" data-name="Group 1003" transform="translate(391.633 270.041)">
        <path id="Path_1788" data-name="Path 1788" d="M476.148,334.268c-72.933,0-132.268-59.336-132.268-132.268h37.791a94.477,94.477,0,1,0,188.955,0h37.791C608.416,274.933,549.081,334.268,476.148,334.268Z" transform="translate(-343.88 -202)"/>
      </g>
      <g id="Group_1013" data-name="Group 1013" transform="translate(160 -60)">
        <g id="Group_1012" data-name="Group 1012" clip-path="url(#clip-path)">
          <g id="Group_1004" data-name="Group 1004" transform="translate(231.633 180.137)">
            <path id="Path_1789" data-name="Path 1789" d="M396.787,489.882c-29.173,0-52.907-23.452-52.907-52.277s23.734-52.277,52.907-52.277,52.907,23.452,52.907,52.277S425.961,489.882,396.787,489.882Zm0-66.764c-8.335,0-15.116,6.5-15.116,14.487s6.781,14.487,15.116,14.487,15.116-6.5,15.116-14.487S405.123,423.118,396.787,423.118ZM706.673,289.59H668.882V151.026a30.233,30.233,0,1,0-60.466,0v21.448H570.625V151.026a68.024,68.024,0,1,1,136.047,0Z" transform="translate(-343.88 -83)"/>
          </g>
          <g id="Group_1005" data-name="Group 1005" transform="translate(294.618 102.035)">
            <path id="Path_1790" data-name="Path 1790" d="M461.9,295.614a67.96,67.96,0,0,1-68.024-67.74V88.74a68.024,68.024,0,0,1,136.047,0V227.874A67.96,67.96,0,0,1,461.9,295.614Zm0-236.823A30.126,30.126,0,0,0,431.671,88.74V227.874a30.234,30.234,0,0,0,60.465,0V88.74A30.126,30.126,0,0,0,461.9,58.791Z" transform="translate(-393.88 -21)"/>
          </g>
          <g id="Group_1006" data-name="Group 1006" transform="translate(1181.445 367.832)">
            <path id="Path_1791" data-name="Path 1791" d="M1135.671,378.125H1097.88c0-80.573,65.509-146.125,146.032-146.125h110.947v37.791H1243.912A108.41,108.41,0,0,0,1135.671,378.125Z" transform="translate(-1097.88 -232)"/>
          </g>
          <g id="Group_1007" data-name="Group 1007" transform="translate(-82.031 326.262)">
            <path id="Path_1792" data-name="Path 1792" d="M132.671,570.611H94.88V264.825c0-36.3,29.667-65.825,66.134-65.825s66.134,29.529,66.134,65.825-29.667,65.826-66.134,65.826V292.86a28.036,28.036,0,1,0-28.343-28.035Z" transform="translate(-94.88 -199)"/>
          </g>
          <g id="Group_1008" data-name="Group 1008" transform="translate(1479.993 612.213)">
            <path id="Path_1793" data-name="Path 1793" d="M1403.533,562.047c-37.856,0-68.653-30.515-68.653-68.024S1365.677,426,1403.533,426v37.791c-17.019,0-30.863,13.562-30.863,30.233s13.844,30.233,30.863,30.233,30.863-13.562,30.863-30.233V444.9h37.791v49.128C1472.187,531.532,1441.39,562.047,1403.533,562.047Z" transform="translate(-1334.88 -426)"/>
          </g>
          <g id="Group_1009" data-name="Group 1009" transform="translate(1833.968 726.845)">
            <path id="Path_1794" data-name="Path 1794" d="M1763.895,800.432c-81.616,0-148.015-65.689-148.015-146.435h37.791c0,59.907,49.446,108.644,110.224,108.644S1874.118,713.9,1874.118,654V517h37.791V654C1911.909,734.742,1845.51,800.432,1763.895,800.432Z" transform="translate(-1615.88 -517)"/>
          </g>
          <g id="Group_1010" data-name="Group 1010" transform="translate(1694.142 772.194)">
            <path id="Path_1795" data-name="Path 1795" d="M1791.425,723.059h-1.976V685.268h1.976a47.239,47.239,0,1,0,0-94.477H1589.946a47.239,47.239,0,1,0,0,94.477h6.42v37.791h-6.42a85.03,85.03,0,1,1,0-170.059h201.478a85.03,85.03,0,1,1,0,170.059Z" transform="translate(-1504.88 -553)"/>
          </g>
          <g id="Group_1011" data-name="Group 1011" transform="translate(1662.649 612.213)">
            <path id="Path_1796" data-name="Path 1796" d="M1678.912,543.152h-37.791c0-43.759-35.866-79.361-79.952-79.361H1479.88V426h81.289C1626.093,426,1678.912,478.555,1678.912,543.152Z" transform="translate(-1479.88 -426)"/>
          </g>
        </g>
      </g>
      <g id="Group_1014" data-name="Group 1014" transform="translate(913.148 954.056)">
        <path id="Path_1797" data-name="Path 1797" d="M824.644,877.268c-36.813,0-66.764-29.668-66.764-66.134S787.831,745,824.644,745s66.764,29.668,66.764,66.134S861.457,877.268,824.644,877.268Zm0-94.477c-15.976,0-28.973,12.715-28.973,28.343s13,28.343,28.973,28.343,28.973-12.715,28.973-28.343S840.619,782.791,824.644,782.791Z" transform="translate(-757.88 -745)"/>
      </g>
      <g id="Group_1015" data-name="Group 1015" transform="translate(840.1 886.679)">
        <path id="Path_1798" data-name="Path 1798" d="M838.906,970.551a138.323,138.323,0,0,1-35.9-4.763c-74.374-19.97-118.428-97.729-98.2-173.333l36.507,9.764c-14.845,55.5,17.228,112.5,71.5,127.071a100,100,0,0,0,77.29-10.7,104.542,104.542,0,0,0,48-63.5c14.843-55.5-17.23-112.5-71.5-127.071l9.8-36.5c74.371,19.969,118.425,97.727,98.2,173.334a142.11,142.11,0,0,1-65.3,86.287A138.179,138.179,0,0,1,838.906,970.551Z" transform="translate(-699.892 -691.513)"/>
      </g>
      <g id="Group_1016" data-name="Group 1016" transform="translate(616.77 719.581)">
        <path id="Path_1799" data-name="Path 1799" d="M856.342,762.6H622.971C567.65,762.576,522.63,716.864,522.6,660.7a101.938,101.938,0,0,1,29.233-71.9,98.813,98.813,0,0,1,71.012-29.935h.053c55.313.029,100.335,45.742,100.359,101.9l.008,18.9H628.379V641.878h54.306c-7.9-26.147-31.728-45.208-59.8-45.223h-.033a61.307,61.307,0,0,0-44.042,18.615,64.364,64.364,0,0,0-18.413,45.417c.016,35.342,28.093,64.108,62.587,64.127H856.342Z" transform="translate(-522.603 -558.864)"/>
      </g>
      <g id="Group_1022" data-name="Group 1022" transform="translate(160 -60)">
        <g id="Group_1021" data-name="Group 1021" clip-path="url(#clip-path)">
          <g id="Group_1017" data-name="Group 1017" transform="translate(766.375 695.353)">
            <rect id="Rectangle_417" data-name="Rectangle 417" width="37.791" height="222.966"/>
          </g>
          <g id="Group_1018" data-name="Group 1018" transform="translate(300.917 1303.787)">
            <path id="Path_1800" data-name="Path 1800" d="M454.331,1084.594c-30.575,0-55.451-24.582-55.451-54.8S423.755,975,454.331,975h39.027v37.791H454.331c-9.737,0-17.66,7.629-17.66,17.006s7.922,17.006,17.66,17.006Z" transform="translate(-398.88 -975)"/>
          </g>
          <g id="Group_1019" data-name="Group 1019" transform="translate(66.613 1326.461)">
            <path id="Path_1801" data-name="Path 1801" d="M284.053,1134.086c-39.245,0-71.173-31.645-71.173-70.543S244.808,993,284.053,993s71.173,31.645,71.173,70.543S323.3,1134.086,284.053,1134.086Zm0-103.3c-18.407,0-33.382,14.692-33.382,32.752s14.975,32.752,33.382,32.752,33.382-14.692,33.382-32.752S302.46,1030.791,284.053,1030.791Z" transform="translate(-212.88 -993)"/>
          </g>
          <g id="Group_1020" data-name="Group 1020" transform="translate(1.109 1118.611)">
            <path id="Path_1802" data-name="Path 1802" d="M293.778,1239.921c-73.28,0-132.9-60.465-132.9-134.788s59.618-134.788,132.9-134.788,132.9,60.466,132.9,134.788H388.885c0-53.484-42.665-97-95.107-97s-95.107,43.512-95.107,97,42.665,97,95.107,97Zm355.745-188.955H601.774v-37.791h47.749c21.6,0,39.17-16.389,39.17-36.531s-17.571-36.531-39.17-36.531h-95.5c-21.6,0-39.17,16.389-39.17,36.531H477.064c0-40.982,34.525-74.322,76.961-74.322h95.5c42.437,0,76.961,33.34,76.961,74.322S691.96,1050.966,649.523,1050.966ZM427.936,952.71H390.145C390.145,883.944,445.884,828,514.4,828H700.03v37.791H514.4C466.722,865.791,427.936,904.782,427.936,952.71Z" transform="translate(-160.88 -828)"/>
          </g>
        </g>
      </g>
      <g id="Group_1023" data-name="Group 1023" transform="translate(330.538 430.022)">
        <path id="Path_1803" data-name="Path 1803" d="M333.171,1082.3H295.38V976.484h37.791ZM859.724,752.258H821.933V660.3h37.791Zm75-280.913c-38.926,0-70.6-31.928-70.6-71.173S895.8,329,934.729,329h166.227v37.791H934.729c-18.089,0-32.8,14.975-32.8,33.382s14.716,33.382,32.8,33.382,32.806-14.975,32.806-33.382h37.791C1005.326,439.417,973.656,471.346,934.729,471.346Z" transform="translate(-295.38 -329)"/>
      </g>
      <g id="Group_1024" data-name="Group 1024" transform="translate(1183.983 482.93)">
        <path id="Path_1804" data-name="Path 1804" d="M1029.566,631.757A56.846,56.846,0,0,1,972.88,574.88V557.12h37.791V574.88a18.9,18.9,0,1,0,37.791,0v-147a18.9,18.9,0,1,0-37.791,0v73.5H972.88v-73.5a56.687,56.687,0,1,1,113.373,0v147A56.847,56.847,0,0,1,1029.566,631.757Z" transform="translate(-972.88 -371)"/>
      </g>
      <g id="Group_1025" data-name="Group 1025" transform="translate(1118.479 501.825)">
        <path id="Path_1805" data-name="Path 1805" d="M1043.7,699.665c-67.724,0-122.821-54.911-122.821-122.406V386h37.791V577.259c0,46.657,38.144,84.615,85.03,84.615s85.03-37.958,85.03-84.615V532.071h37.791v45.188C1166.521,644.753,1111.424,699.665,1043.7,699.665Z" transform="translate(-920.88 -386)"/>
      </g>
      <g id="Group_1026" data-name="Group 1026" transform="translate(1008.885 312.87)">
        <path id="Path_1806" data-name="Path 1806" d="M871.671,326.7H833.88c0-50.011,40.514-90.7,90.314-90.7h54.551v37.791H924.194C895.232,273.791,871.671,297.525,871.671,326.7Z" transform="translate(-833.88 -236)"/>
      </g>
      <g id="Group_1027" data-name="Group 1027" transform="translate(1183.353 277.599)">
        <rect id="Rectangle_419" data-name="Rectangle 419" width="37.791" height="171.319"/>
      </g>
      <g id="Group_1033" data-name="Group 1033" transform="translate(160 -60)">
        <g id="Group_1032" data-name="Group 1032" clip-path="url(#clip-path)">
          <g id="Group_1028" data-name="Group 1028" transform="translate(1166.329 559.306)">
            <path id="Path_1807" data-name="Path 1807" d="M1232.162,520.047a61.513,61.513,0,0,1-61.579-61.307V444.984a23.458,23.458,0,0,0-46.912,0v16.93H1085.88v-16.93a61.248,61.248,0,0,1,122.494,0V458.74a23.784,23.784,0,0,0,47.565,0V442.133h37.791V458.74A61.508,61.508,0,0,1,1232.162,520.047Z" transform="translate(-1085.88 -384)"/>
          </g>
          <g id="Group_1029" data-name="Group 1029" transform="translate(-60.617 934.695)">
            <path id="Path_1808" data-name="Path 1808" d="M178.014,823.086a66.083,66.083,0,1,1,0-132.166v37.791A28.292,28.292,0,1,0,206.357,757V682h37.791v75A66.183,66.183,0,0,1,178.014,823.086Z" transform="translate(-111.88 -682)"/>
          </g>
          <g id="Group_1030" data-name="Group 1030" transform="translate(40.159 684.404)">
            <path id="Path_1809" data-name="Path 1809" d="M229.671,664.316H191.88v-74.4c0-25.253,9.789-49.882,27.566-69.344,17.037-18.655,40.789-31.888,66.879-37.261l7.622,37.015c-37.845,7.792-64.276,36.409-64.276,69.589Z" transform="translate(-191.88 -483.308)"/>
          </g>
          <g id="Group_1031" data-name="Group 1031" transform="translate(-13.378 576.941)">
            <path id="Path_1810" data-name="Path 1810" d="M350.3,882.983a79.375,79.375,0,0,1-79.361-79.209V662.384a79.361,79.361,0,0,1,158.722,0V803.775A79.375,79.375,0,0,1,350.3,882.983Zm0-262.017a41.541,41.541,0,0,0-41.57,41.418V803.775a41.57,41.57,0,0,0,83.14,0V662.384A41.541,41.541,0,0,0,350.3,620.966ZM187.171,576.877H149.38V398h37.791Z" transform="translate(-149.38 -398)"/>
          </g>
        </g>
      </g>
      <g id="Group_1034" data-name="Group 1034" transform="translate(1410.728 906.188)">
        <path id="Path_1811" data-name="Path 1811" d="M1288.927,912.331h-37.791V856.195c0-16.974-13.563-30.783-30.233-30.783s-30.233,13.809-30.233,30.783H1152.88c0-37.812,30.515-68.574,68.023-68.574s68.024,30.762,68.024,68.574Zm85.03-64.245c-39.245,0-71.173-31.645-71.173-70.543S1334.712,707,1373.957,707s71.173,31.645,71.173,70.543S1413.2,848.086,1373.957,848.086Zm0-103.3c-18.407,0-33.382,14.692-33.382,32.752s14.975,32.752,33.382,32.752,33.382-14.692,33.382-32.752S1392.364,744.791,1373.957,744.791Z" transform="translate(-1152.88 -707)"/>
      </g>
      <g id="Group_1035" data-name="Group 1035" transform="translate(1417.027 1139.232)">
        <path id="Path_1812" data-name="Path 1812" d="M1223.846,1024.268a66.134,66.134,0,0,1,0-132.268h175.9v37.791h-175.9a28.344,28.344,0,1,0,28.175,28.343h37.791A66.125,66.125,0,0,1,1223.846,1024.268Z" transform="translate(-1157.88 -892)"/>
      </g>
      <g id="Group_1043" data-name="Group 1043" transform="translate(160 -60)">
        <g id="Group_1042" data-name="Group 1042" clip-path="url(#clip-path)">
          <g id="Group_1036" data-name="Group 1036" transform="translate(1311.194 898.164)">
            <path id="Path_1813" data-name="Path 1813" d="M1372.4,927.614h-51.6V889.823h51.6c54.76,0,99.311-44.642,99.311-99.516s-44.55-99.516-99.311-99.516H1200.88V653H1372.4c75.6,0,137.1,61.6,137.1,137.307S1448,927.614,1372.4,927.614Z" transform="translate(-1200.88 -653)"/>
          </g>
          <g id="Group_1037" data-name="Group 1037" transform="translate(1560.614 1199.232)">
            <path id="Path_1814" data-name="Path 1814" d="M1571.458,1112.447h-37.791v-101.79c0-44.59-36.084-80.866-80.438-80.866h-54.35V892h54.35c65.192,0,118.229,53.23,118.229,118.657Z" transform="translate(-1398.88 -892)"/>
          </g>
          <g id="Group_1038" data-name="Group 1038" transform="translate(1560.614 1265.996)">
            <path id="Path_1815" data-name="Path 1815" d="M1451.787,1049.555c-29.173,0-52.907-23.452-52.907-52.277S1422.614,945,1451.787,945s52.907,23.452,52.907,52.277S1480.961,1049.555,1451.787,1049.555Zm0-66.764c-8.335,0-15.116,6.5-15.116,14.487s6.781,14.487,15.116,14.487,15.116-6.5,15.116-14.487S1460.123,982.791,1451.787,982.791Z" transform="translate(-1398.88 -945)"/>
          </g>
          <g id="Group_1039" data-name="Group 1039" transform="translate(1410.044 1430.98)">
            <rect id="Rectangle_421" data-name="Rectangle 421" width="37.791" height="37.791" transform="translate(0 0.071) rotate(-0.108)"/>
          </g>
          <g id="Group_1040" data-name="Group 1040" transform="translate(1410.044 1356.658)">
            <rect id="Rectangle_422" data-name="Rectangle 422" width="37.791" height="37.791" transform="translate(0 0.071) rotate(-0.108)"/>
          </g>
          <g id="Group_1041" data-name="Group 1041" transform="translate(1174.481 1292.414)">
            <rect id="Rectangle_423" data-name="Rectangle 423" width="37.791" height="37.791" transform="translate(0 0.071) rotate(-0.108)"/>
          </g>
        </g>
      </g>
      <g id="Group_1044" data-name="Group 1044" transform="translate(1334.481 1158.092)">
        <rect id="Rectangle_425" data-name="Rectangle 425" width="37.791" height="37.791" transform="translate(0 0.071) rotate(-0.108)"/>
      </g>
      <g id="Group_1045" data-name="Group 1045" transform="translate(1258.899 1158.092)">
        <rect id="Rectangle_426" data-name="Rectangle 426" width="37.791" height="37.791" transform="translate(0 0.071) rotate(-0.108)"/>
      </g>
      <g id="Group_1052" data-name="Group 1052" transform="translate(160 -60)">
        <g id="Group_1051" data-name="Group 1051" clip-path="url(#clip-path)">
          <g id="Group_1046" data-name="Group 1046" transform="translate(574.865 1118.575)">
            <rect id="Rectangle_427" data-name="Rectangle 427" width="37.791" height="37.791" transform="translate(0 0.072) rotate(-0.109)"/>
          </g>
          <g id="Group_1047" data-name="Group 1047" transform="translate(16.819 636.112)">
            <path id="Path_1816" data-name="Path 1816" d="M173.424,991.751l-.072-37.791,37.791-.071.072,37.791ZM343.483,482.833l-.072-37.791,37.791-.071.072,37.791Z" transform="translate(-173.352 -444.972)"/>
          </g>
          <g id="Group_1048" data-name="Group 1048" transform="translate(125.153 542.894)">
            <rect id="Rectangle_428" data-name="Rectangle 428" width="37.791" height="37.791" transform="translate(0 0.072) rotate(-0.109)"/>
          </g>
          <g id="Group_1049" data-name="Group 1049" transform="translate(646.668 195.218)">
            <path id="Path_1817" data-name="Path 1817" d="M673.424,532.159l-.072-37.791,37.791-.073.072,37.791Zm375.389-399.325-.071-37.791,37.791-.071.071,37.791Z" transform="translate(-673.352 -94.972)"/>
          </g>
          <g id="Group_1050" data-name="Group 1050" transform="translate(1022.058 123.415)">
            <path id="Path_1818" data-name="Path 1818" d="M1564.74,748.511l-.071-37.791,37.791-.068.07,37.791Zm-89.438,0-.071-37.791,37.791-.068.07,37.791Zm-89.439,0-.07-37.791,37.791-.068.07,37.791ZM971.423,75.833l-.071-37.791,37.791-.071.071,37.791Z" transform="translate(-971.352 -37.972)"/>
          </g>
        </g>
      </g>
    </g>
  </g>
</svg>
