<svg xmlns="http://www.w3.org/2000/svg" width="743.073" height="224.514" viewBox="0 0 743.073 224.514">
  <g id="Group_11" data-name="Group 11" transform="translate(-533.263 -482.345)">
    <g id="Group_9" data-name="Group 9">
      <path id="Path_1" data-name="Path 1" d="M626.25,527.345h33.91V633.768c0,18.554-6.4,33.484-18.981,44.574s-28.579,16.635-47.987,16.635c-21.114,0-39.669-5.972-55.664-17.7l13.65-27.511c13.649,8.957,27.085,13.435,40.521,13.435,21.114,0,32.631-11.516,32.631-27.085v-2.559c-8.318,7.89-19.194,11.729-32.844,11.729-17.488,0-31.564-5.545-42.228-16.847s-15.995-25.593-15.995-43.295c0-18.128,5.758-32.63,17.062-43.934s25.592-16.849,42.867-16.849c13.01,0,24.1,4.266,33.058,12.8Zm-28.366,31.564c-15.355,0-26.659,11.091-26.659,26.659s11.3,27.3,26.659,27.3,26.659-11.729,26.659-27.3C624.543,570.213,613.24,558.909,597.884,558.909Z" fill="#111"/>
      <path id="Path_2" data-name="Path 2" d="M695.988,630.355c-11.73-11.943-17.7-26.659-17.7-44.147s5.972-32.2,17.7-44.147c11.943-12.157,27.3-18.128,46.28-18.128s34.55,5.971,46.28,18.128q17.915,17.915,17.915,44.147t-17.915,44.147c-11.73,11.944-27.3,17.916-46.28,17.916S707.931,642.3,695.988,630.355ZM761.249,605.4a26.871,26.871,0,0,0,7.678-19.407,26.577,26.577,0,0,0-26.659-26.659,24.814,24.814,0,0,0-18.768,7.891,25.415,25.415,0,0,0-7.678,18.768A26.871,26.871,0,0,0,723.5,605.4a25.415,25.415,0,0,0,18.768,7.678A25.9,25.9,0,0,0,761.249,605.4Z" fill="#111"/>
      <path id="Path_3" data-name="Path 3" d="M912.457,527.345h33.91V633.768c0,18.554-6.4,33.484-18.981,44.574s-28.578,16.635-47.986,16.635c-21.114,0-39.669-5.972-55.664-17.7l13.649-27.511c13.65,8.957,27.086,13.435,40.522,13.435,21.114,0,32.631-11.516,32.631-27.085v-2.559c-8.318,7.89-19.2,11.729-32.845,11.729-17.488,0-31.564-5.545-42.227-16.847s-16-25.593-16-43.295c0-18.128,5.759-32.63,17.062-43.934s25.593-16.849,42.868-16.849c13.009,0,24.1,4.266,33.057,12.8Zm-28.365,31.564c-15.356,0-26.659,11.091-26.659,26.659s11.3,27.3,26.659,27.3,26.659-11.729,26.659-27.3C910.751,570.213,899.447,558.909,884.092,558.909Z" fill="#111"/>
      <path id="Path_4" data-name="Path 4" d="M1007.575,645.071H970.039V482.345h37.536Z" fill="#111"/>
      <path id="Path_5" data-name="Path 5" d="M1026.621,641.231a5.82,5.82,0,1,1,5.88,5.76A5.715,5.715,0,0,1,1026.621,641.231Z" fill="#111"/>
      <path id="Path_6" data-name="Path 6" d="M1105.1,580.874h6.96v64.2h-6.96V632.592a29.25,29.25,0,0,1-25.32,14.039,30.025,30.025,0,0,1-22.8-9.719c-6.12-6.6-9.12-14.64-9.12-24.239q0-14.22,9-23.759a30.427,30.427,0,0,1,22.919-9.6,29.146,29.146,0,0,1,25.32,13.919Zm-6.6,51.237a27.834,27.834,0,0,0,7.2-19.438,26.869,26.869,0,0,0-7.2-18.96,24.024,24.024,0,0,0-18.359-7.8,23.512,23.512,0,0,0-18.12,7.8c-4.68,5.16-6.959,11.64-6.959,19.2,0,7.68,2.279,14.16,6.959,19.319a25.093,25.093,0,0,0,36.479-.12Z" fill="#111"/>
      <path id="Path_7" data-name="Path 7" d="M1187.3,589.033c6.119,6.481,9.119,14.4,9.119,23.879s-3,17.4-9.119,23.88a30.03,30.03,0,0,1-22.8,9.72,29.119,29.119,0,0,1-25.68-14.281v39.24h-7.2v-90.6h7.2v13.079a29.055,29.055,0,0,1,25.68-14.76A29.72,29.72,0,0,1,1187.3,589.033Zm-5.16,43.078a29.571,29.571,0,0,0,0-38.4,23.26,23.26,0,0,0-18-7.8,23.716,23.716,0,0,0-18.36,7.919,27.75,27.75,0,0,0-7.2,19.319,26.867,26.867,0,0,0,7.2,18.959,24.022,24.022,0,0,0,18.36,7.8A23.258,23.258,0,0,0,1182.139,632.111Z" fill="#111"/>
      <path id="Path_8" data-name="Path 8" d="M1267.217,589.033c6.119,6.481,9.119,14.4,9.119,23.879s-3,17.4-9.119,23.88a30.03,30.03,0,0,1-22.8,9.72,29.119,29.119,0,0,1-25.68-14.281v39.24h-7.2v-90.6h7.2v13.079a29.055,29.055,0,0,1,25.68-14.76A29.72,29.72,0,0,1,1267.217,589.033Zm-5.16,43.078a29.571,29.571,0,0,0,0-38.4,23.26,23.26,0,0,0-18-7.8,23.717,23.717,0,0,0-18.36,7.919,27.75,27.75,0,0,0-7.2,19.319,26.867,26.867,0,0,0,7.2,18.959,24.022,24.022,0,0,0,18.36,7.8A23.258,23.258,0,0,0,1262.057,632.111Z" fill="#111"/>
    </g>
    <g id="Group_10" data-name="Group 10">
      <path id="Path_9" data-name="Path 9" d="M973.415,688a9.185,9.185,0,0,0-1.474,1.334.869.869,0,0,0-.1.179h.08a1.12,1.12,0,0,1,1.1,1.156,1.257,1.257,0,0,1-1.295,1.235,1.414,1.414,0,0,1-1.374-1.474c0-1.135.816-2.231,2.469-3.287Zm3.207,1.513a1.119,1.119,0,0,1,1.095,1.156,1.255,1.255,0,0,1-1.294,1.235,1.415,1.415,0,0,1-1.375-1.474c0-1.135.817-2.231,2.47-3.287l.6.857a9.089,9.089,0,0,0-1.474,1.334.823.823,0,0,0-.1.179Z" fill="#111"/>
      <path id="Path_10" data-name="Path 10" d="M991.383,698.1a4.106,4.106,0,0,1-1.215,2.967,4.4,4.4,0,0,1-3.346,1.255h-6.075V687.6h5.817a3.9,3.9,0,0,1,2.967,1.116,3.572,3.572,0,0,1,1.076,2.569,3.152,3.152,0,0,1-1.992,2.988A3.768,3.768,0,0,1,991.383,698.1Zm-8.663-8.644v4.1h3.525a2.177,2.177,0,0,0,2.331-2.15,2.059,2.059,0,0,0-2.271-1.952Zm3.784,10.994a2.785,2.785,0,0,0,2.051-.737,2.378,2.378,0,0,0,.777-1.753,2.627,2.627,0,0,0-2.908-2.589h-3.7v5.079Z" fill="#111"/>
      <path id="Path_11" data-name="Path 11" d="M1003.617,697.757h-8.5a3.458,3.458,0,0,0,3.745,3.047,6.738,6.738,0,0,0,3.724-1.194l.817,1.453a7.911,7.911,0,0,1-4.582,1.494,5.325,5.325,0,0,1-5.7-5.616,5.555,5.555,0,0,1,1.5-3.984,5.163,5.163,0,0,1,3.9-1.574,4.949,4.949,0,0,1,3.7,1.454,5.323,5.323,0,0,1,1.454,3.944C1003.677,696.92,1003.658,697.239,1003.617,697.757Zm-1.911-1.654a3.062,3.062,0,0,0-3.187-3.027,3.467,3.467,0,0,0-3.406,3.027Z" fill="#111"/>
      <path id="Path_12" data-name="Path 12" d="M1012.724,701.681a4.508,4.508,0,0,1-2.848.9c-2.25,0-3.406-1.454-3.406-4v-5.3h-1.892v-1.633h1.913v-3.785h1.872v3.785h3.783v1.633h-3.783v5.437c0,1.414.577,2.111,1.732,2.111a3.552,3.552,0,0,0,1.913-.617Z" fill="#111"/>
      <path id="Path_13" data-name="Path 13" d="M1021.231,701.681a4.51,4.51,0,0,1-2.848.9c-2.251,0-3.406-1.454-3.406-4v-5.3h-1.892v-1.633H1015v-3.785h1.872v3.785h3.784v1.633h-3.784v5.437c0,1.414.577,2.111,1.733,2.111a3.549,3.549,0,0,0,1.912-.617Z" fill="#111"/>
      <path id="Path_14" data-name="Path 14" d="M1032.467,697.757h-8.505a3.458,3.458,0,0,0,3.745,3.047,6.738,6.738,0,0,0,3.724-1.194l.817,1.453a7.908,7.908,0,0,1-4.581,1.494,5.325,5.325,0,0,1-5.7-5.616,5.555,5.555,0,0,1,1.494-3.984,5.166,5.166,0,0,1,3.9-1.574,4.952,4.952,0,0,1,3.7,1.454,5.323,5.323,0,0,1,1.454,3.944C1032.527,696.92,1032.507,697.239,1032.467,697.757Zm-1.912-1.654a3.061,3.061,0,0,0-3.187-3.027,3.467,3.467,0,0,0-3.406,3.027Z" fill="#111"/>
      <path id="Path_15" data-name="Path 15" d="M1034.782,702.318V691.643h1.813v1.573a3.188,3.188,0,0,1,3.066-1.853,5.4,5.4,0,0,1,1.256.16l-.18,1.852a3.707,3.707,0,0,0-1.115-.179c-1.693,0-2.928,1.175-2.928,3.465v5.657Z" fill="#111"/>
      <path id="Path_16" data-name="Path 16" d="M1048.449,700.386a7.421,7.421,0,0,1-2.131-5.417,7.225,7.225,0,0,1,2.23-5.458,7.459,7.459,0,0,1,5.418-2.17,8.1,8.1,0,0,1,6.134,2.708l-1.414,1.295a6.06,6.06,0,0,0-4.7-2.071,5.513,5.513,0,0,0-4.023,1.612,5.574,5.574,0,0,0-1.614,4.1,5.494,5.494,0,0,0,1.614,4.042,5.435,5.435,0,0,0,3.964,1.594,6.665,6.665,0,0,0,4.72-2.071v-2.928h-4.92v-1.833h6.792v5.637a8.486,8.486,0,0,1-6.672,3.106A7.311,7.311,0,0,1,1048.449,700.386Z" fill="#111"/>
      <path id="Path_17" data-name="Path 17" d="M1063.97,700.963a5.543,5.543,0,0,1-1.573-4,5.48,5.48,0,0,1,5.616-5.6,5.319,5.319,0,0,1,4,1.634,5.5,5.5,0,0,1,1.593,3.963,5.56,5.56,0,0,1-1.593,4,5.374,5.374,0,0,1-4,1.614A5.43,5.43,0,0,1,1063.97,700.963Zm6.652-6.691a3.564,3.564,0,0,0-5.218,0,3.71,3.71,0,0,0-1.076,2.688,3.834,3.834,0,0,0,1.076,2.728,3.564,3.564,0,0,0,5.218,0,3.838,3.838,0,0,0,1.075-2.728A3.713,3.713,0,0,0,1070.622,694.272Z" fill="#111"/>
      <path id="Path_18" data-name="Path 18" d="M1076.821,700.963a5.544,5.544,0,0,1-1.574-4,5.481,5.481,0,0,1,5.616-5.6,5.32,5.32,0,0,1,4,1.634,5.5,5.5,0,0,1,1.593,3.963,5.56,5.56,0,0,1-1.593,4,5.821,5.821,0,0,1-8.046,0Zm6.652-6.691a3.565,3.565,0,0,0-5.219,0,3.713,3.713,0,0,0-1.075,2.688,3.838,3.838,0,0,0,1.075,2.728,3.565,3.565,0,0,0,5.219,0,3.838,3.838,0,0,0,1.075-2.728A3.714,3.714,0,0,0,1083.473,694.272Z" fill="#111"/>
      <path id="Path_19" data-name="Path 19" d="M1097.2,691.643h1.891v9.579a5.463,5.463,0,0,1-1.553,4.1,5.7,5.7,0,0,1-4.162,1.534,7.9,7.9,0,0,1-4.721-1.514l.9-1.514a6.268,6.268,0,0,0,3.8,1.295,3.858,3.858,0,0,0,2.808-1.016,3.363,3.363,0,0,0,1.036-2.569v-.877a4.706,4.706,0,0,1-3.745,1.674,5.082,5.082,0,0,1-3.824-1.573,5.43,5.43,0,0,1-1.533-3.924,5.209,5.209,0,0,1,1.574-3.884,5.273,5.273,0,0,1,3.883-1.574,4.636,4.636,0,0,1,3.645,1.654Zm-3.525,8.982a3.471,3.471,0,0,0,2.609-1.075,3.7,3.7,0,0,0,1.036-2.689,3.623,3.623,0,0,0-1.036-2.669,3.7,3.7,0,0,0-5.218,0,3.615,3.615,0,0,0-1.036,2.669,3.7,3.7,0,0,0,1.036,2.689A3.466,3.466,0,0,0,1093.675,700.625Z" fill="#111"/>
      <path id="Path_20" data-name="Path 20" d="M1103.956,702.318h-1.911V687.241h1.911Z" fill="#111"/>
      <path id="Path_21" data-name="Path 21" d="M1116.785,697.757h-8.505a3.458,3.458,0,0,0,3.745,3.047,6.738,6.738,0,0,0,3.724-1.194l.817,1.453a7.908,7.908,0,0,1-4.581,1.494,5.325,5.325,0,0,1-5.7-5.616,5.555,5.555,0,0,1,1.494-3.984,5.166,5.166,0,0,1,3.9-1.574,4.951,4.951,0,0,1,3.7,1.454,5.323,5.323,0,0,1,1.454,3.944C1116.845,696.92,1116.825,697.239,1116.785,697.757Zm-1.912-1.654a3.061,3.061,0,0,0-3.187-3.027,3.467,3.467,0,0,0-3.406,3.027Z" fill="#111"/>
      <path id="Path_22" data-name="Path 22" d="M1124.4,687.6h1.993v14.719H1124.4Z" fill="#111"/>
      <path id="Path_23" data-name="Path 23" d="M1145.134,692.619a4.643,4.643,0,0,1,1.155,3.346v6.353h-1.911v-6.055c0-1.991-.976-3.127-2.57-3.127a2.877,2.877,0,0,0-2.848,3.167v6.015h-1.892V696.3c0-1.992-.995-3.167-2.589-3.167a2.9,2.9,0,0,0-2.868,3.206v5.976H1129.7V691.643h1.872v1.573a3.511,3.511,0,0,1,3.227-1.853,3.616,3.616,0,0,1,3.346,1.993,4.46,4.46,0,0,1,3.884-1.993A4.034,4.034,0,0,1,1145.134,692.619Z" fill="#111"/>
      <path id="Path_24" data-name="Path 24" d="M1157.55,691.643h1.831v10.675h-1.831V700.8a4.628,4.628,0,0,1-3.765,1.773,4.988,4.988,0,0,1-3.824-1.633,5.694,5.694,0,0,1-1.513-4.044,5.39,5.39,0,0,1,1.513-3.943,5.079,5.079,0,0,1,3.824-1.574,4.66,4.66,0,0,1,3.765,1.813Zm-.9,2.609a3.429,3.429,0,0,0-2.649-1.116,3.357,3.357,0,0,0-2.629,1.116,4.235,4.235,0,0,0,0,5.457,3.356,3.356,0,0,0,2.629,1.115,3.428,3.428,0,0,0,2.649-1.115,4.172,4.172,0,0,0,0-5.457Z" fill="#111"/>
      <path id="Path_25" data-name="Path 25" d="M1170.8,691.643h1.892v9.579a5.467,5.467,0,0,1-1.553,4.1,5.7,5.7,0,0,1-4.163,1.534,7.9,7.9,0,0,1-4.721-1.514l.9-1.514a6.27,6.27,0,0,0,3.8,1.295,3.861,3.861,0,0,0,2.809-1.016,3.366,3.366,0,0,0,1.035-2.569v-.877a4.7,4.7,0,0,1-3.745,1.674,5.083,5.083,0,0,1-3.824-1.573,5.429,5.429,0,0,1-1.532-3.924,5.208,5.208,0,0,1,1.573-3.884,5.274,5.274,0,0,1,3.884-1.574,4.632,4.632,0,0,1,3.644,1.654Zm-3.525,8.982a3.47,3.47,0,0,0,2.609-1.075,3.7,3.7,0,0,0,1.036-2.689,3.619,3.619,0,0,0-1.036-2.669,3.7,3.7,0,0,0-5.218,0,3.615,3.615,0,0,0-1.036,2.669,3.7,3.7,0,0,0,1.036,2.689A3.468,3.468,0,0,0,1167.274,700.625Z" fill="#111"/>
      <path id="Path_26" data-name="Path 26" d="M1185.5,697.757H1177a3.457,3.457,0,0,0,3.745,3.047,6.737,6.737,0,0,0,3.723-1.194l.817,1.453a7.908,7.908,0,0,1-4.581,1.494,5.325,5.325,0,0,1-5.7-5.616,5.555,5.555,0,0,1,1.494-3.984,5.166,5.166,0,0,1,3.9-1.574,4.952,4.952,0,0,1,3.705,1.454,5.323,5.323,0,0,1,1.454,3.944C1185.562,696.92,1185.542,697.239,1185.5,697.757Zm-1.911-1.654a3.062,3.062,0,0,0-3.188-3.027,3.466,3.466,0,0,0-3.4,3.027Z" fill="#111"/>
      <path id="Path_27" data-name="Path 27" d="M1186.841,700.246l1.374-1.055a3.07,3.07,0,0,0,2.65,1.693c1.135,0,1.891-.658,1.891-1.474a1.519,1.519,0,0,0-.976-1.355c-.219-.119-.676-.318-1.334-.6s-1.1-.478-1.314-.6a2.8,2.8,0,0,1-1.633-2.589,2.714,2.714,0,0,1,.955-2.131,3.606,3.606,0,0,1,2.53-.857,3.963,3.963,0,0,1,3.386,1.693l-1.215,1.155a2.679,2.679,0,0,0-2.29-1.235,1.363,1.363,0,0,0-1.534,1.3,1.339,1.339,0,0,0,.9,1.254l1.175.519a13.38,13.38,0,0,1,1.434.657,2.9,2.9,0,0,1,1.812,2.689,2.931,2.931,0,0,1-1.075,2.309,4.083,4.083,0,0,1-2.768.937A4.409,4.409,0,0,1,1186.841,700.246Z" fill="#111"/>
      <path id="Path_28" data-name="Path 28" d="M1200.848,699.53l1.474-1.215a3.9,3.9,0,0,0,3.525,2.349c1.672,0,2.708-.976,2.708-2.23,0-.8-.517-1.474-1.534-2.051-.258-.14-.776-.379-1.513-.717s-1.275-.618-1.653-.837a4.1,4.1,0,0,1-2.211-3.505,3.677,3.677,0,0,1,1.215-2.828,4.482,4.482,0,0,1,3.227-1.155,5.067,5.067,0,0,1,4.322,2.17l-1.334,1.275a3.592,3.592,0,0,0-2.968-1.573,2.093,2.093,0,0,0-2.331,1.991,2.171,2.171,0,0,0,1.255,1.893c.259.158.817.457,1.713.875s1.514.737,1.853.937a3.878,3.878,0,0,1,2.13,3.426,3.759,3.759,0,0,1-1.394,3.046,5.176,5.176,0,0,1-3.466,1.176A5.419,5.419,0,0,1,1200.848,699.53Z" fill="#111"/>
      <path id="Path_29" data-name="Path 29" d="M1222.879,697.757h-8.5a3.458,3.458,0,0,0,3.745,3.047,6.738,6.738,0,0,0,3.723-1.194l.818,1.453a7.911,7.911,0,0,1-4.582,1.494,5.325,5.325,0,0,1-5.7-5.616,5.551,5.551,0,0,1,1.495-3.984,5.163,5.163,0,0,1,3.9-1.574,4.951,4.951,0,0,1,3.7,1.454,5.322,5.322,0,0,1,1.454,3.944C1222.939,696.92,1222.92,697.239,1222.879,697.757Zm-1.911-1.654a3.062,3.062,0,0,0-3.187-3.027,3.467,3.467,0,0,0-3.406,3.027Z" fill="#111"/>
      <path id="Path_30" data-name="Path 30" d="M1233.638,691.643h1.832v10.675h-1.832V700.8a4.624,4.624,0,0,1-3.764,1.773,4.988,4.988,0,0,1-3.824-1.633,5.694,5.694,0,0,1-1.513-4.044,5.39,5.39,0,0,1,1.513-3.943,5.079,5.079,0,0,1,3.824-1.574,4.657,4.657,0,0,1,3.764,1.813Zm-.9,2.609a3.425,3.425,0,0,0-2.648-1.116,3.356,3.356,0,0,0-2.629,1.116,4.235,4.235,0,0,0,0,5.457,3.355,3.355,0,0,0,2.629,1.115,3.424,3.424,0,0,0,2.648-1.115,4.168,4.168,0,0,0,0-5.457Z" fill="#111"/>
      <path id="Path_31" data-name="Path 31" d="M1238.443,702.318V691.643h1.813v1.573a3.188,3.188,0,0,1,3.066-1.853,5.4,5.4,0,0,1,1.256.16l-.179,1.852a3.718,3.718,0,0,0-1.116-.179c-1.693,0-2.928,1.175-2.928,3.465v5.657Z" fill="#111"/>
      <path id="Path_32" data-name="Path 32" d="M1246.612,700.983a5.877,5.877,0,0,1,.019-8.026,5.652,5.652,0,0,1,4.143-1.574,5.332,5.332,0,0,1,4.839,2.789l-1.573.916a3.82,3.82,0,0,0-3.266-1.952,3.677,3.677,0,0,0-2.729,1.1,4.055,4.055,0,0,0-.02,5.478,3.5,3.5,0,0,0,2.65,1.1,3.918,3.918,0,0,0,3.3-1.912l1.594.916a4.92,4.92,0,0,1-1.992,1.992,5.86,5.86,0,0,1-2.907.757A5.489,5.489,0,0,1,1246.612,700.983Z" fill="#111"/>
      <path id="Path_33" data-name="Path 33" d="M1257.63,702.318V687.241h1.852v5.716a4.088,4.088,0,0,1,3.385-1.594,4.167,4.167,0,0,1,2.988,1.155,4.35,4.35,0,0,1,1.215,3.327v6.473h-1.892v-5.935c0-2.092-1.1-3.247-2.708-3.247a2.959,2.959,0,0,0-2.928,3.247v5.935Z" fill="#111"/>
      <path id="Path_34" data-name="Path 34" d="M1271.676,688.595c0,1.135-.817,2.231-2.471,3.287l-.6-.857a9.138,9.138,0,0,0,1.474-1.334.771.771,0,0,0,.1-.18h-.079a1.118,1.118,0,0,1-1.1-1.155,1.255,1.255,0,0,1,1.294-1.235A1.415,1.415,0,0,1,1271.676,688.595Zm4.66,0c0,1.135-.817,2.231-2.469,3.287l-.6-.857a9.087,9.087,0,0,0,1.474-1.334.816.816,0,0,0,.1-.18h-.08a1.118,1.118,0,0,1-1.1-1.155,1.255,1.255,0,0,1,1.3-1.235A1.414,1.414,0,0,1,1276.336,688.595Z" fill="#111"/>
    </g>
  </g>
</svg>
