<svg xmlns="http://www.w3.org/2000/svg" width="750" viewBox="0 0 562.5 168.75" height="225" version="1.0"><path d="M54.704 50.972c3.07 3.375 4.61 7.5 4.61 12.375s-1.54 8.992-4.61 12.344c-3.074 3.355-6.984 5.03-11.734 5.03-4.356 0-7.946-1.562-10.766-4.687h-.125v3.72H20.86V24.627h11.344v25.39c2.82-2.737 6.41-4.109 10.766-4.109 4.75 0 8.66 1.688 11.734 5.063Zm-9.563 17.922c1.415-1.438 2.125-3.285 2.125-5.547 0-2.27-.742-4.129-2.218-5.578-1.469-1.445-3.293-2.172-5.469-2.172-2.137 0-3.945.727-5.422 2.172-1.469 1.449-2.203 3.308-2.203 5.578 0 2.219.71 4.059 2.14 5.516 1.438 1.449 3.266 2.171 5.485 2.171 2.3 0 4.156-.71 5.562-2.14Zm0 0" fill="#198754"/><path d="M94.701 64.878H70.857c0 2.313.742 4.028 2.235 5.14 1.5 1.106 3.125 1.657 4.875 1.657 1.843 0 3.297-.242 4.359-.734 1.07-.489 2.29-1.461 3.656-2.922l8.203 4.11c-3.418 5.73-9.101 8.593-17.046 8.593-4.961 0-9.215-1.695-12.766-5.094-3.543-3.406-5.313-7.5-5.313-12.281 0-4.79 1.77-8.895 5.313-12.313 3.55-3.414 7.805-5.125 12.766-5.125 5.218 0 9.457 1.512 12.718 4.532 3.27 3.011 4.907 7.312 4.907 12.906 0 .773-.024 1.281-.063 1.531Zm-23.516-6.281h12.5c-.261-1.707-.937-3.02-2.03-3.938-1.087-.914-2.481-1.375-4.188-1.375-1.887 0-3.387.497-4.5 1.485-1.106.98-1.7 2.258-1.782 3.828ZM98.804 46.878v-12.25h11.344v12.25h6.922v8.64h-6.922v10.454c0 3.031.852 4.547 2.563 4.547.426 0 .875-.082 1.343-.25.477-.176.844-.348 1.094-.516l.39-.25 2.813 9.156c-2.437 1.375-5.214 2.063-8.328 2.063-2.136 0-3.976-.375-5.515-1.125-1.532-.75-2.696-1.754-3.485-3.016a13.495 13.495 0 0 1-1.703-3.968 18.556 18.556 0 0 1-.516-4.454V55.52H94.07v-8.64Zm0 0" fill="#198754"/><path d="M120.919 46.878v-12.25h11.344v12.25h6.922v8.64h-6.922v10.454c0 3.031.851 4.547 2.562 4.547.426 0 .875-.082 1.344-.25.477-.176.844-.348 1.094-.516l.39-.25 2.813 9.156c-2.438 1.375-5.215 2.063-8.328 2.063-2.137 0-3.977-.375-5.516-1.125-1.531-.75-2.695-1.754-3.484-3.016a13.495 13.495 0 0 1-1.703-3.968 18.556 18.556 0 0 1-.516-4.454V55.52h-4.734v-8.64Zm0 0" fill="#198754"/><path d="M174.377 64.878h-23.844c0 2.313.743 4.028 2.235 5.14 1.5 1.106 3.125 1.657 4.875 1.657 1.844 0 3.297-.242 4.36-.734 1.07-.489 2.288-1.461 3.655-2.922l8.204 4.11c-3.418 5.73-9.102 8.593-17.047 8.593-4.961 0-9.215-1.695-12.766-5.094-3.543-3.406-5.312-7.5-5.312-12.281 0-4.79 1.769-8.895 5.312-12.313 3.55-3.414 7.805-5.125 12.766-5.125 5.218 0 9.457 1.512 12.718 4.532 3.27 3.011 4.907 7.312 4.907 12.906 0 .773-.024 1.281-.063 1.531Zm-23.515-6.281h12.5c-.262-1.707-.938-3.02-2.032-3.938-1.086-.914-2.48-1.375-4.187-1.375-1.887 0-3.387.497-4.5 1.485-1.106.98-1.7 2.258-1.781 3.828ZM176.559 79.753V46.878h11.343v4.735h.125c.094-.164.235-.375.422-.625.196-.258.614-.707 1.25-1.344a16.096 16.096 0 0 1 2.047-1.735c.727-.52 1.672-.984 2.828-1.39a10.538 10.538 0 0 1 3.516-.61c1.238 0 2.457.172 3.656.516 1.196.344 2.07.688 2.625 1.031l.906.5-4.75 9.625c-1.406-1.195-3.37-1.797-5.89-1.797-1.367 0-2.543.305-3.531.907-.98.593-1.672 1.32-2.079 2.172-.406.855-.699 1.586-.875 2.187-.167.594-.25 1.059-.25 1.39v17.313ZM212.588 66.034c2.05 0 3.789.72 5.219 2.157 1.425 1.43 2.14 3.168 2.14 5.218 0 6.325-3.59 12.454-10.765 18.391l-3.266-2.687c.3-.262.676-.649 1.125-1.157.445-.511 1.11-1.547 1.984-3.11.875-1.562 1.461-3.132 1.766-4.702-1.625-.387-2.953-1.188-3.984-2.406-1.024-1.22-1.532-2.66-1.532-4.329 0-2.05.711-3.789 2.141-5.218 1.438-1.438 3.16-2.157 5.172-2.157ZM237.267 87.831l9.297-4.547c1.707 2.813 4.675 4.22 8.906 4.22 1.957 0 3.781-.634 5.469-1.891 1.687-1.262 2.53-3.196 2.53-5.797v-2.438c-2 2.23-5.589 3.344-10.765 3.344-4.742 0-8.652-1.676-11.734-5.031-3.074-3.352-4.61-7.47-4.61-12.344 0-4.875 1.536-9 4.61-12.375 3.082-3.375 6.992-5.063 11.734-5.063 4.227 0 7.754 1.305 10.578 3.907h.188v-2.938h11.36v33.766c0 5.344-1.778 9.469-5.329 12.375-3.543 2.906-8.219 4.36-14.031 4.36-9.406 0-15.477-3.184-18.203-9.548Zm13.36-30.062c-1.47 1.449-2.204 3.308-2.204 5.578 0 2.262.703 4.11 2.11 5.547 1.406 1.43 3.265 2.14 5.578 2.14 2.218 0 4.039-.722 5.468-2.171 1.438-1.457 2.157-3.297 2.157-5.516 0-2.27-.743-4.129-2.22-5.578-1.468-1.445-3.273-2.172-5.405-2.172-2.18 0-4.008.727-5.485 2.172ZM282.42 75.847c-3.656-3.25-5.484-7.414-5.484-12.5 0-5.082 1.898-9.258 5.703-12.531 3.812-3.27 8.516-4.907 14.11-4.907 5.507 0 10.156 1.649 13.937 4.938 3.781 3.293 5.672 7.46 5.672 12.5 0 5.043-1.852 9.2-5.547 12.469-3.7 3.273-8.387 4.906-14.063 4.906-5.898 0-10.672-1.625-14.328-4.875Zm8.781-18.078c-1.468 1.449-2.203 3.308-2.203 5.578 0 2.262.703 4.11 2.11 5.547 1.406 1.43 3.265 2.14 5.578 2.14 2.219 0 4.039-.722 5.469-2.171 1.437-1.457 2.156-3.297 2.156-5.516 0-2.27-.742-4.129-2.219-5.578-1.469-1.445-3.273-2.172-5.406-2.172-2.18 0-4.008.727-5.485 2.172Zm0 0" fill="#198754"/><path d="M321.585 75.847c-3.656-3.25-5.484-7.414-5.484-12.5 0-5.082 1.898-9.258 5.703-12.531 3.812-3.27 8.516-4.907 14.11-4.907 5.507 0 10.156 1.649 13.937 4.938 3.781 3.293 5.672 7.46 5.672 12.5 0 5.043-1.852 9.2-5.547 12.469-3.7 3.273-8.387 4.906-14.063 4.906-5.898 0-10.672-1.625-14.328-4.875Zm8.781-18.078c-1.468 1.449-2.203 3.308-2.203 5.578 0 2.262.703 4.11 2.11 5.547 1.406 1.43 3.265 2.14 5.578 2.14 2.219 0 4.039-.722 5.469-2.171 1.437-1.457 2.156-3.297 2.156-5.516 0-2.27-.742-4.129-2.219-5.578-1.469-1.445-3.273-2.172-5.406-2.172-2.18 0-4.008.727-5.485 2.172Zm0 0" fill="#198754"/><path d="m356.172 87.831 9.297-4.547c1.707 2.813 4.676 4.22 8.906 4.22 1.957 0 3.781-.634 5.469-1.891 1.687-1.262 2.531-3.196 2.531-5.797v-2.438c-2 2.23-5.59 3.344-10.766 3.344-4.742 0-8.652-1.676-11.734-5.031-3.074-3.352-4.61-7.47-4.61-12.344 0-4.875 1.536-9 4.61-12.375 3.082-3.375 6.992-5.063 11.734-5.063 4.227 0 7.754 1.305 10.579 3.907h.187v-2.938h11.36v33.766c0 5.344-1.778 9.469-5.329 12.375-3.543 2.906-8.218 4.36-14.03 4.36-9.407 0-15.477-3.184-18.204-9.548Zm13.36-30.062c-1.47 1.449-2.204 3.308-2.204 5.578 0 2.262.703 4.11 2.11 5.547 1.406 1.43 3.265 2.14 5.578 2.14 2.218 0 4.039-.722 5.468-2.171 1.438-1.457 2.157-3.297 2.157-5.516 0-2.27-.742-4.129-2.219-5.578-1.469-1.445-3.273-2.172-5.406-2.172-2.18 0-4.008.727-5.485 2.172ZM398.216 79.753V24.628h11.344v55.125ZM447.314 64.878H423.47c0 2.313.743 4.028 2.235 5.14 1.5 1.106 3.125 1.657 4.875 1.657 1.844 0 3.297-.242 4.36-.734 1.07-.489 2.288-1.461 3.655-2.922l8.204 4.11c-3.418 5.73-9.102 8.593-17.047 8.593-4.961 0-9.215-1.695-12.766-5.094-3.543-3.406-5.312-7.5-5.312-12.281 0-4.79 1.77-8.895 5.312-12.313 3.55-3.414 7.805-5.125 12.766-5.125 5.218 0 9.457 1.512 12.718 4.532 3.27 3.011 4.907 7.312 4.907 12.906 0 .773-.024 1.281-.063 1.531ZM423.8 58.597h12.5c-.262-1.707-.938-3.02-2.032-3.938-1.086-.914-2.48-1.375-4.187-1.375-1.887 0-3.387.497-4.5 1.485-1.106.98-1.7 2.258-1.781 3.828ZM21.954 89.445c1.32-1.332 2.898-2 4.734-2 1.844 0 3.426.668 4.75 2 1.32 1.324 1.985 2.902 1.985 4.734 0 1.836-.664 3.418-1.985 4.75-1.324 1.324-2.906 1.985-4.75 1.985-1.836 0-3.414-.66-4.734-1.985-1.324-1.332-1.984-2.914-1.984-4.75 0-1.832.66-3.41 1.984-4.734Zm-1.094 18.328v32.875h11.344v-32.875ZM37.013 140.648v-32.875h11.344v3.453h.125c2.945-2.945 6.086-4.422 9.422-4.422 2.395 0 4.64.496 6.734 1.485 2.094.98 3.676 2.496 4.75 4.546 3.332-4.019 6.961-6.03 10.891-6.03 3.5 0 6.508.984 9.031 2.952 2.52 1.97 3.781 5.047 3.781 9.235v21.656H81.748v-18.594c0-1.75-.48-3.207-1.438-4.375-.96-1.176-2.402-1.765-4.328-1.765-1.668 0-2.937.5-3.812 1.5s-1.356 2.21-1.438 3.625v19.609H59.388v-18.594c0-1.75-.484-3.207-1.453-4.375-.96-1.176-2.398-1.765-4.312-1.765-1.762 0-3.078.546-3.953 1.64-.875 1.086-1.313 2.371-1.313 3.86v19.234ZM99.181 136.585c-3.074-3.351-4.61-7.468-4.61-12.343s1.536-9 4.61-12.375c3.082-3.375 6.992-5.063 11.734-5.063 4.364 0 7.954 1.371 10.766 4.11v-3.141h11.36v32.875h-11.22v-3.719h-.14c-2.812 3.125-6.402 4.688-10.766 4.688-4.742 0-8.652-1.676-11.734-5.032Zm9.656-17.921c-1.468 1.449-2.203 3.308-2.203 5.578 0 2.261.703 4.11 2.11 5.547 1.406 1.43 3.265 2.14 5.578 2.14 2.218 0 4.039-.722 5.468-2.172 1.438-1.457 2.157-3.297 2.157-5.515 0-2.27-.742-4.13-2.219-5.578-1.469-1.446-3.273-2.172-5.406-2.172-2.18 0-4.008.726-5.485 2.172ZM136.053 148.726l9.297-4.547c1.707 2.813 4.676 4.219 8.906 4.219 1.957 0 3.782-.633 5.469-1.89 1.688-1.262 2.531-3.196 2.531-5.798v-2.437c-2 2.23-5.59 3.344-10.765 3.344-4.743 0-8.653-1.676-11.735-5.032-3.074-3.351-4.61-7.468-4.61-12.343s1.536-9 4.61-12.375c3.082-3.375 6.992-5.063 11.735-5.063 4.226 0 7.754 1.305 10.578 3.906h.187v-2.937h11.36v33.766c0 5.343-1.778 9.468-5.328 12.375-3.543 2.906-8.22 4.359-14.032 4.359-9.406 0-15.476-3.184-18.203-9.547Zm13.36-30.062c-1.47 1.449-2.204 3.308-2.204 5.578 0 2.261.704 4.11 2.11 5.547 1.406 1.43 3.265 2.14 5.578 2.14 2.219 0 4.039-.722 5.469-2.172 1.437-1.457 2.156-3.297 2.156-5.515 0-2.27-.742-4.13-2.219-5.578-1.469-1.446-3.273-2.172-5.406-2.172-2.18 0-4.008.726-5.484 2.172ZM211.363 125.773h-23.844c0 2.312.742 4.027 2.234 5.14 1.5 1.106 3.125 1.657 4.875 1.657 1.844 0 3.297-.242 4.36-.735 1.07-.488 2.289-1.46 3.656-2.921l8.203 4.109c-3.418 5.73-9.101 8.594-17.047 8.594-4.96 0-9.215-1.696-12.765-5.094-3.543-3.406-5.313-7.5-5.313-12.281 0-4.79 1.77-8.895 5.313-12.313 3.55-3.414 7.804-5.125 12.765-5.125 5.219 0 9.457 1.512 12.719 4.531 3.27 3.012 4.906 7.313 4.906 12.907 0 .773-.023 1.281-.062 1.531Zm-23.516-6.281h12.5c-.262-1.707-.937-3.02-2.031-3.938-1.086-.914-2.48-1.375-4.188-1.375-1.886 0-3.386.496-4.5 1.485-1.105.98-1.699 2.257-1.78 3.828ZM227.841 106.804c1.875 0 3.727.215 5.563.64 1.843.43 3.21.856 4.11 1.282l1.343.64-3.719 7.438c-2.562-1.363-4.996-2.047-7.297-2.047-1.281 0-2.195.141-2.734.422-.531.274-.797.793-.797 1.563 0 .168.02.34.062.515.04.168.125.328.25.485.133.148.254.273.36.375.113.105.297.226.547.36.258.124.46.218.61.28.155.063.398.164.733.297.344.125.598.219.766.281.176.063.469.165.875.297.406.125.711.211.922.25 1.332.387 2.488.813 3.469 1.282.976.468 2.008 1.109 3.093 1.921a8.186 8.186 0 0 1 2.532 3.079c.601 1.242.906 2.652.906 4.234 0 7.48-5.188 11.219-15.563 11.219-2.355 0-4.59-.367-6.703-1.094-2.117-.727-3.64-1.457-4.578-2.188l-1.422-1.156 4.625-7.75c.344.305.79.656 1.344 1.063.55.406 1.55.965 3 1.672 1.457.699 2.723 1.046 3.797 1.046 2.344 0 3.516-.789 3.516-2.375 0-.718-.305-1.28-.907-1.687-.593-.406-1.605-.863-3.03-1.375-1.43-.52-2.548-.992-3.36-1.422-2.055-1.062-3.68-2.266-4.875-3.61-1.2-1.35-1.797-3.14-1.797-5.359 0-3.332 1.289-5.925 3.875-7.78 2.582-1.864 6.078-2.798 10.484-2.798ZM254.186 126.742c0-1.582.36-3.098 1.078-4.547.727-1.457 1.754-2.785 3.079-3.985a34.186 34.186 0 0 1 4.046-3.14 61.439 61.439 0 0 1 4.672-2.75c-3.543-4.445-5.312-8.36-5.312-11.735 0-4.187 1.46-7.53 4.39-10.03 2.926-2.5 7.083-3.75 12.47-3.75 4.956 0 8.812 1.39 11.562 4.171 2.758 2.781 4.14 5.984 4.14 9.61 0 1.5-.367 2.968-1.093 4.406-.73 1.43-1.594 2.64-2.594 3.64-1 1-2.016 1.887-3.047 2.657-1.023.773-1.898 1.351-2.625 1.734l-1.094.578 7.047 7.313c1.54-.688 4.129-2.91 7.766-6.672l7.437 7.312c-2.398 2.73-4.898 5.14-7.5 7.235l11.406 11.859h-15.187l-5.266-5.453c-1.625 1.156-2.824 1.98-3.593 2.469-.762.492-1.903 1.12-3.422 1.89a17.554 17.554 0 0 1-4.688 1.61c-1.594.3-3.355.453-5.281.453-1.668 0-3.313-.14-4.938-.422a22.211 22.211 0 0 1-4.89-1.469c-1.649-.707-3.09-1.594-4.328-2.656-1.242-1.07-2.258-2.492-3.047-4.266-.793-1.781-1.188-3.8-1.188-6.062Zm24.422-31.407c-1.543 0-2.699.497-3.469 1.485-.773.98-1.156 2.234-1.156 3.765 0 .899.32 1.891.969 2.985.645 1.094 1.285 1.96 1.922 2.594l.969.906c3.925-2.145 5.89-4.305 5.89-6.485 0-3.5-1.71-5.25-5.125-5.25Zm3.14 31.86-8.405-8.281c-.125.054-.32.132-.579.234-.25.105-.699.36-1.343.766a8.969 8.969 0 0 0-1.657 1.343c-.468.493-.906 1.141-1.312 1.953a5.66 5.66 0 0 0-.61 2.563c0 1.418.594 2.512 1.782 3.281 1.195.762 2.586 1.14 4.172 1.14 1.281 0 2.582-.241 3.906-.734 1.332-.488 2.336-.988 3.016-1.5ZM334.952 106.804c1.875 0 3.727.215 5.563.64 1.843.43 3.21.856 4.109 1.282l1.344.64-3.72 7.438c-2.562-1.363-4.995-2.047-7.296-2.047-1.281 0-2.195.141-2.734.422-.532.274-.797.793-.797 1.563 0 .168.02.34.062.515.04.168.125.328.25.485.133.148.254.273.36.375.113.105.297.226.547.36.257.124.46.218.609.28.156.063.398.164.734.297.344.125.598.219.766.281.176.063.469.165.875.297.406.125.71.211.922.25 1.332.387 2.488.813 3.469 1.282.976.468 2.007 1.109 3.093 1.921a8.186 8.186 0 0 1 2.532 3.079c.601 1.242.906 2.652.906 4.234 0 7.48-5.188 11.219-15.563 11.219-2.355 0-4.59-.367-6.703-1.094-2.117-.727-3.64-1.457-4.578-2.188l-1.422-1.156 4.625-7.75c.344.305.79.656 1.344 1.063.55.406 1.55.965 3 1.672 1.457.699 2.723 1.046 3.797 1.046 2.344 0 3.515-.789 3.515-2.375 0-.718-.304-1.28-.906-1.687-.594-.406-1.605-.863-3.031-1.375-1.43-.52-2.547-.992-3.36-1.422-2.054-1.062-3.68-2.266-4.874-3.61-1.2-1.35-1.797-3.14-1.797-5.359 0-3.332 1.289-5.925 3.875-7.78 2.582-1.864 6.078-2.798 10.484-2.798ZM382.253 125.773h-23.844c0 2.312.742 4.027 2.235 5.14 1.5 1.106 3.125 1.657 4.875 1.657 1.843 0 3.296-.242 4.359-.735 1.07-.488 2.289-1.46 3.656-2.921l8.203 4.109c-3.418 5.73-9.101 8.594-17.047 8.594-4.96 0-9.214-1.696-12.765-5.094-3.543-3.406-5.313-7.5-5.313-12.281 0-4.79 1.77-8.895 5.313-12.313 3.55-3.414 7.804-5.125 12.765-5.125 5.22 0 9.457 1.512 12.72 4.531 3.269 3.012 4.905 7.313 4.905 12.907 0 .773-.023 1.281-.062 1.531Zm-23.516-6.281h12.5c-.261-1.707-.937-3.02-2.03-3.938-1.087-.914-2.481-1.375-4.188-1.375-1.887 0-3.387.496-4.5 1.485-1.106.98-1.7 2.257-1.782 3.828Zm0 0" fill="#198754"/><path d="M386.669 136.585c-3.074-3.351-4.61-7.468-4.61-12.343s1.536-9 4.61-12.375c3.082-3.375 6.992-5.063 11.734-5.063 4.364 0 7.953 1.371 10.766 4.11v-3.141h11.36v32.875h-11.22v-3.719h-.14c-2.813 3.125-6.402 4.688-10.766 4.688-4.742 0-8.652-1.676-11.734-5.032Zm9.656-17.921c-1.469 1.449-2.203 3.308-2.203 5.578 0 2.261.703 4.11 2.11 5.547 1.406 1.43 3.265 2.14 5.578 2.14 2.218 0 4.039-.722 5.468-2.172 1.438-1.457 2.157-3.297 2.157-5.515 0-2.27-.743-4.13-2.22-5.578-1.468-1.446-3.273-2.172-5.405-2.172-2.18 0-4.008.726-5.485 2.172ZM425.01 140.648v-32.875h11.343v4.734h.125c.094-.164.235-.375.422-.625.196-.257.614-.707 1.25-1.343a16.096 16.096 0 0 1 2.047-1.735c.727-.52 1.672-.984 2.828-1.39a10.538 10.538 0 0 1 3.516-.61c1.238 0 2.457.172 3.656.516 1.196.344 2.07.687 2.625 1.031l.906.5-4.75 9.625c-1.406-1.195-3.37-1.797-5.89-1.797-1.367 0-2.543.305-3.531.906-.98.594-1.672 1.32-2.079 2.172-.406.856-.699 1.586-.875 2.188-.168.594-.25 1.058-.25 1.39v17.313ZM471.226 116.101c-2.136 0-3.976.793-5.515 2.375-1.531 1.574-2.297 3.477-2.297 5.703 0 2.262.766 4.184 2.297 5.766 1.539 1.586 3.379 2.375 5.515 2.375 1.02 0 1.989-.125 2.907-.375.925-.258 1.601-.52 2.03-.781l.579-.391 3.844 7.89c-.305.212-.719.477-1.25.797-.531.325-1.75.762-3.656 1.313-1.899.562-3.938.844-6.125.844-4.825 0-9.063-1.696-12.72-5.094-3.655-3.406-5.484-7.477-5.484-12.219 0-4.781 1.829-8.89 5.485-12.328 3.656-3.445 7.894-5.172 12.719-5.172 2.187 0 4.195.262 6.03.781 1.833.512 3.134 1.024 3.907 1.532l1.094.765-3.844 7.75c-1.418-1.02-3.258-1.53-5.516-1.53ZM481.994 140.648V85.523h11.344v25.703h.125c2.946-2.945 6.086-4.422 9.422-4.422 1.625 0 3.238.215 4.844.64 1.601.43 3.14 1.09 4.61 1.985 1.476.899 2.675 2.168 3.593 3.813.914 1.648 1.375 3.562 1.375 5.75v21.656h-11.344v-18.594c0-1.707-.547-3.203-1.64-4.484-1.086-1.281-2.5-1.922-4.25-1.922-1.711 0-3.262.668-4.657 2-1.386 1.324-2.078 2.793-2.078 4.406v18.594ZM528.472 126.93c2.05 0 3.789.718 5.219 2.155 1.425 1.43 2.14 3.168 2.14 5.22 0 2.011-.715 3.734-2.14 5.171-1.43 1.426-3.168 2.14-5.219 2.14-2.012 0-3.734-.714-5.172-2.14-1.43-1.437-2.14-3.16-2.14-5.172 0-2.05.71-3.789 2.14-5.219 1.438-1.437 3.16-2.156 5.172-2.156Zm0 0" fill="#198754"/></svg>