<svg xmlns="http://www.w3.org/2000/svg" xmlns:xlink="http://www.w3.org/1999/xlink" width="750" zoomAndPan="magnify" viewBox="0 0 562.5 168.749997" height="225" preserveAspectRatio="xMidYMid meet" version="1.0"><defs><g/></defs><g fill="#ffffff" fill-opacity="1"><g transform="translate(17.016464, 79.753192)"><g><path d="M 37.6875 -28.78125 C 40.757812 -25.40625 42.296875 -21.28125 42.296875 -16.40625 C 42.296875 -11.53125 40.757812 -7.414062 37.6875 -4.0625 C 34.613281 -0.707031 30.703125 0.96875 25.953125 0.96875 C 21.597656 0.96875 18.007812 -0.59375 15.1875 -3.71875 L 15.0625 -3.71875 L 15.0625 0 L 3.84375 0 L 3.84375 -55.125 L 15.1875 -55.125 L 15.1875 -29.734375 C 18.007812 -32.472656 21.597656 -33.84375 25.953125 -33.84375 C 30.703125 -33.84375 34.613281 -32.15625 37.6875 -28.78125 Z M 28.125 -10.859375 C 29.539062 -12.296875 30.25 -14.144531 30.25 -16.40625 C 30.25 -18.675781 29.507812 -20.535156 28.03125 -21.984375 C 26.5625 -23.429688 24.738281 -24.15625 22.5625 -24.15625 C 20.425781 -24.15625 18.617188 -23.429688 17.140625 -21.984375 C 15.671875 -20.535156 14.9375 -18.675781 14.9375 -16.40625 C 14.9375 -14.1875 15.648438 -12.347656 17.078125 -10.890625 C 18.515625 -9.441406 20.34375 -8.71875 22.5625 -8.71875 C 24.863281 -8.71875 26.71875 -9.429688 28.125 -10.859375 Z M 28.125 -10.859375 "/></g></g></g><g fill="#ffffff" fill-opacity="1"><g transform="translate(57.59166, 79.753192)"><g><path d="M 37.109375 -14.875 L 13.265625 -14.875 C 13.265625 -12.5625 14.007812 -10.847656 15.5 -9.734375 C 17 -8.628906 18.625 -8.078125 20.375 -8.078125 C 22.21875 -8.078125 23.671875 -8.320312 24.734375 -8.8125 C 25.804688 -9.300781 27.023438 -10.273438 28.390625 -11.734375 L 36.59375 -7.625 C 33.175781 -1.894531 27.492188 0.96875 19.546875 0.96875 C 14.585938 0.96875 10.332031 -0.726562 6.78125 -4.125 C 3.238281 -7.53125 1.46875 -11.625 1.46875 -16.40625 C 1.46875 -21.195312 3.238281 -25.300781 6.78125 -28.71875 C 10.332031 -32.132812 14.585938 -33.84375 19.546875 -33.84375 C 24.765625 -33.84375 29.003906 -32.332031 32.265625 -29.3125 C 35.535156 -26.300781 37.171875 -22 37.171875 -16.40625 C 37.171875 -15.632812 37.148438 -15.125 37.109375 -14.875 Z M 13.59375 -21.15625 L 26.09375 -21.15625 C 25.832031 -22.863281 25.15625 -24.175781 24.0625 -25.09375 C 22.976562 -26.007812 21.582031 -26.46875 19.875 -26.46875 C 17.988281 -26.46875 16.488281 -25.972656 15.375 -24.984375 C 14.269531 -24.003906 13.675781 -22.726562 13.59375 -21.15625 Z M 13.59375 -21.15625 "/></g></g></g><g fill="#ffffff" fill-opacity="1"><g transform="translate(93.038869, 79.753192)"><g><path d="M 5.765625 -32.875 L 5.765625 -45.125 L 17.109375 -45.125 L 17.109375 -32.875 L 24.03125 -32.875 L 24.03125 -24.234375 L 17.109375 -24.234375 L 17.109375 -13.78125 C 17.109375 -10.75 17.960938 -9.234375 19.671875 -9.234375 C 20.097656 -9.234375 20.546875 -9.316406 21.015625 -9.484375 C 21.492188 -9.660156 21.859375 -9.832031 22.109375 -10 L 22.5 -10.25 L 25.3125 -1.09375 C 22.875 0.28125 20.097656 0.96875 16.984375 0.96875 C 14.847656 0.96875 13.007812 0.59375 11.46875 -0.15625 C 9.9375 -0.90625 8.773438 -1.910156 7.984375 -3.171875 C 7.191406 -4.429688 6.625 -5.753906 6.28125 -7.140625 C 5.9375 -8.535156 5.765625 -10.019531 5.765625 -11.59375 L 5.765625 -24.234375 L 1.03125 -24.234375 L 1.03125 -32.875 Z M 5.765625 -32.875 "/></g></g></g><g fill="#ffffff" fill-opacity="1"><g transform="translate(115.153317, 79.753192)"><g><path d="M 5.765625 -32.875 L 5.765625 -45.125 L 17.109375 -45.125 L 17.109375 -32.875 L 24.03125 -32.875 L 24.03125 -24.234375 L 17.109375 -24.234375 L 17.109375 -13.78125 C 17.109375 -10.75 17.960938 -9.234375 19.671875 -9.234375 C 20.097656 -9.234375 20.546875 -9.316406 21.015625 -9.484375 C 21.492188 -9.660156 21.859375 -9.832031 22.109375 -10 L 22.5 -10.25 L 25.3125 -1.09375 C 22.875 0.28125 20.097656 0.96875 16.984375 0.96875 C 14.847656 0.96875 13.007812 0.59375 11.46875 -0.15625 C 9.9375 -0.90625 8.773438 -1.910156 7.984375 -3.171875 C 7.191406 -4.429688 6.625 -5.753906 6.28125 -7.140625 C 5.9375 -8.535156 5.765625 -10.019531 5.765625 -11.59375 L 5.765625 -24.234375 L 1.03125 -24.234375 L 1.03125 -32.875 Z M 5.765625 -32.875 "/></g></g></g><g fill="#ffffff" fill-opacity="1"><g transform="translate(137.267766, 79.753192)"><g><path d="M 37.109375 -14.875 L 13.265625 -14.875 C 13.265625 -12.5625 14.007812 -10.847656 15.5 -9.734375 C 17 -8.628906 18.625 -8.078125 20.375 -8.078125 C 22.21875 -8.078125 23.671875 -8.320312 24.734375 -8.8125 C 25.804688 -9.300781 27.023438 -10.273438 28.390625 -11.734375 L 36.59375 -7.625 C 33.175781 -1.894531 27.492188 0.96875 19.546875 0.96875 C 14.585938 0.96875 10.332031 -0.726562 6.78125 -4.125 C 3.238281 -7.53125 1.46875 -11.625 1.46875 -16.40625 C 1.46875 -21.195312 3.238281 -25.300781 6.78125 -28.71875 C 10.332031 -32.132812 14.585938 -33.84375 19.546875 -33.84375 C 24.765625 -33.84375 29.003906 -32.332031 32.265625 -29.3125 C 35.535156 -26.300781 37.171875 -22 37.171875 -16.40625 C 37.171875 -15.632812 37.148438 -15.125 37.109375 -14.875 Z M 13.59375 -21.15625 L 26.09375 -21.15625 C 25.832031 -22.863281 25.15625 -24.175781 24.0625 -25.09375 C 22.976562 -26.007812 21.582031 -26.46875 19.875 -26.46875 C 17.988281 -26.46875 16.488281 -25.972656 15.375 -24.984375 C 14.269531 -24.003906 13.675781 -22.726562 13.59375 -21.15625 Z M 13.59375 -21.15625 "/></g></g></g><g fill="#ffffff" fill-opacity="1"><g transform="translate(172.714981, 79.753192)"><g><path d="M 3.84375 0 L 3.84375 -32.875 L 15.1875 -32.875 L 15.1875 -28.140625 L 15.3125 -28.140625 C 15.40625 -28.304688 15.546875 -28.515625 15.734375 -28.765625 C 15.929688 -29.023438 16.347656 -29.472656 16.984375 -30.109375 C 17.628906 -30.753906 18.3125 -31.332031 19.03125 -31.84375 C 19.757812 -32.363281 20.703125 -32.828125 21.859375 -33.234375 C 23.015625 -33.640625 24.1875 -33.84375 25.375 -33.84375 C 26.613281 -33.84375 27.832031 -33.671875 29.03125 -33.328125 C 30.226562 -32.984375 31.101562 -32.640625 31.65625 -32.296875 L 32.5625 -31.796875 L 27.8125 -22.171875 C 26.40625 -23.367188 24.441406 -23.96875 21.921875 -23.96875 C 20.554688 -23.96875 19.378906 -23.664062 18.390625 -23.0625 C 17.410156 -22.46875 16.71875 -21.742188 16.3125 -20.890625 C 15.90625 -20.035156 15.613281 -19.304688 15.4375 -18.703125 C 15.269531 -18.109375 15.1875 -17.644531 15.1875 -17.3125 L 15.1875 0 Z M 3.84375 0 "/></g></g></g><g fill="#ffffff" fill-opacity="1"><g transform="translate(201.4317, 79.753192)"><g><path d="M 11.15625 -13.71875 C 13.207031 -13.71875 14.945312 -13 16.375 -11.5625 C 17.800781 -10.132812 18.515625 -8.394531 18.515625 -6.34375 C 18.515625 -0.0195312 14.925781 6.109375 7.75 12.046875 L 4.484375 9.359375 C 4.785156 9.097656 5.160156 8.710938 5.609375 8.203125 C 6.054688 7.691406 6.71875 6.65625 7.59375 5.09375 C 8.46875 3.53125 9.054688 1.960938 9.359375 0.390625 C 7.734375 0.00390625 6.40625 -0.796875 5.375 -2.015625 C 4.351562 -3.234375 3.84375 -4.675781 3.84375 -6.34375 C 3.84375 -8.394531 4.554688 -10.132812 5.984375 -11.5625 C 7.421875 -13 9.144531 -13.71875 11.15625 -13.71875 Z M 11.15625 -13.71875 "/></g></g></g><g fill="#ffffff" fill-opacity="1"><g transform="translate(220.597557, 79.753192)"><g/></g></g><g fill="#ffffff" fill-opacity="1"><g transform="translate(234.891823, 79.753192)"><g><path d="M 2.375 8.078125 L 11.671875 3.53125 C 13.378906 6.34375 16.347656 7.75 20.578125 7.75 C 22.535156 7.75 24.359375 7.117188 26.046875 5.859375 C 27.734375 4.597656 28.578125 2.664062 28.578125 0.0625 L 28.578125 -2.375 C 26.578125 -0.144531 22.988281 0.96875 17.8125 0.96875 C 13.070312 0.96875 9.160156 -0.707031 6.078125 -4.0625 C 3.003906 -7.414062 1.46875 -11.53125 1.46875 -16.40625 C 1.46875 -21.28125 3.003906 -25.40625 6.078125 -28.78125 C 9.160156 -32.15625 13.070312 -33.84375 17.8125 -33.84375 C 22.039062 -33.84375 25.566406 -32.539062 28.390625 -29.9375 L 28.578125 -29.9375 L 28.578125 -32.875 L 39.9375 -32.875 L 39.9375 0.890625 C 39.9375 6.234375 38.160156 10.359375 34.609375 13.265625 C 31.066406 16.171875 26.390625 17.625 20.578125 17.625 C 11.171875 17.625 5.101562 14.441406 2.375 8.078125 Z M 15.734375 -21.984375 C 14.265625 -20.535156 13.53125 -18.675781 13.53125 -16.40625 C 13.53125 -14.144531 14.234375 -12.296875 15.640625 -10.859375 C 17.046875 -9.429688 18.90625 -8.71875 21.21875 -8.71875 C 23.4375 -8.71875 25.257812 -9.441406 26.6875 -10.890625 C 28.125 -12.347656 28.84375 -14.1875 28.84375 -16.40625 C 28.84375 -18.675781 28.101562 -20.535156 26.625 -21.984375 C 25.15625 -23.429688 23.351562 -24.15625 21.21875 -24.15625 C 19.039062 -24.15625 17.210938 -23.429688 15.734375 -21.984375 Z M 15.734375 -21.984375 "/></g></g></g><g fill="#ffffff" fill-opacity="1"><g transform="translate(275.467013, 79.753192)"><g><path d="M 6.953125 -3.90625 C 3.296875 -7.15625 1.46875 -11.320312 1.46875 -16.40625 C 1.46875 -21.488281 3.367188 -25.664062 7.171875 -28.9375 C 10.984375 -32.207031 15.6875 -33.84375 21.28125 -33.84375 C 26.789062 -33.84375 31.4375 -32.195312 35.21875 -28.90625 C 39 -25.613281 40.890625 -21.445312 40.890625 -16.40625 C 40.890625 -11.363281 39.039062 -7.207031 35.34375 -3.9375 C 31.644531 -0.664062 26.957031 0.96875 21.28125 0.96875 C 15.382812 0.96875 10.609375 -0.65625 6.953125 -3.90625 Z M 15.734375 -21.984375 C 14.265625 -20.535156 13.53125 -18.675781 13.53125 -16.40625 C 13.53125 -14.144531 14.234375 -12.296875 15.640625 -10.859375 C 17.046875 -9.429688 18.90625 -8.71875 21.21875 -8.71875 C 23.4375 -8.71875 25.257812 -9.441406 26.6875 -10.890625 C 28.125 -12.347656 28.84375 -14.1875 28.84375 -16.40625 C 28.84375 -18.675781 28.101562 -20.535156 26.625 -21.984375 C 25.15625 -23.429688 23.351562 -24.15625 21.21875 -24.15625 C 19.039062 -24.15625 17.210938 -23.429688 15.734375 -21.984375 Z M 15.734375 -21.984375 "/></g></g></g><g fill="#ffffff" fill-opacity="1"><g transform="translate(314.632, 79.753192)"><g><path d="M 6.953125 -3.90625 C 3.296875 -7.15625 1.46875 -11.320312 1.46875 -16.40625 C 1.46875 -21.488281 3.367188 -25.664062 7.171875 -28.9375 C 10.984375 -32.207031 15.6875 -33.84375 21.28125 -33.84375 C 26.789062 -33.84375 31.4375 -32.195312 35.21875 -28.90625 C 39 -25.613281 40.890625 -21.445312 40.890625 -16.40625 C 40.890625 -11.363281 39.039062 -7.207031 35.34375 -3.9375 C 31.644531 -0.664062 26.957031 0.96875 21.28125 0.96875 C 15.382812 0.96875 10.609375 -0.65625 6.953125 -3.90625 Z M 15.734375 -21.984375 C 14.265625 -20.535156 13.53125 -18.675781 13.53125 -16.40625 C 13.53125 -14.144531 14.234375 -12.296875 15.640625 -10.859375 C 17.046875 -9.429688 18.90625 -8.71875 21.21875 -8.71875 C 23.4375 -8.71875 25.257812 -9.441406 26.6875 -10.890625 C 28.125 -12.347656 28.84375 -14.1875 28.84375 -16.40625 C 28.84375 -18.675781 28.101562 -20.535156 26.625 -21.984375 C 25.15625 -23.429688 23.351562 -24.15625 21.21875 -24.15625 C 19.039062 -24.15625 17.210938 -23.429688 15.734375 -21.984375 Z M 15.734375 -21.984375 "/></g></g></g><g fill="#ffffff" fill-opacity="1"><g transform="translate(353.796987, 79.753192)"><g><path d="M 2.375 8.078125 L 11.671875 3.53125 C 13.378906 6.34375 16.347656 7.75 20.578125 7.75 C 22.535156 7.75 24.359375 7.117188 26.046875 5.859375 C 27.734375 4.597656 28.578125 2.664062 28.578125 0.0625 L 28.578125 -2.375 C 26.578125 -0.144531 22.988281 0.96875 17.8125 0.96875 C 13.070312 0.96875 9.160156 -0.707031 6.078125 -4.0625 C 3.003906 -7.414062 1.46875 -11.53125 1.46875 -16.40625 C 1.46875 -21.28125 3.003906 -25.40625 6.078125 -28.78125 C 9.160156 -32.15625 13.070312 -33.84375 17.8125 -33.84375 C 22.039062 -33.84375 25.566406 -32.539062 28.390625 -29.9375 L 28.578125 -29.9375 L 28.578125 -32.875 L 39.9375 -32.875 L 39.9375 0.890625 C 39.9375 6.234375 38.160156 10.359375 34.609375 13.265625 C 31.066406 16.171875 26.390625 17.625 20.578125 17.625 C 11.171875 17.625 5.101562 14.441406 2.375 8.078125 Z M 15.734375 -21.984375 C 14.265625 -20.535156 13.53125 -18.675781 13.53125 -16.40625 C 13.53125 -14.144531 14.234375 -12.296875 15.640625 -10.859375 C 17.046875 -9.429688 18.90625 -8.71875 21.21875 -8.71875 C 23.4375 -8.71875 25.257812 -9.441406 26.6875 -10.890625 C 28.125 -12.347656 28.84375 -14.1875 28.84375 -16.40625 C 28.84375 -18.675781 28.101562 -20.535156 26.625 -21.984375 C 25.15625 -23.429688 23.351562 -24.15625 21.21875 -24.15625 C 19.039062 -24.15625 17.210938 -23.429688 15.734375 -21.984375 Z M 15.734375 -21.984375 "/></g></g></g><g fill="#ffffff" fill-opacity="1"><g transform="translate(394.372177, 79.753192)"><g><path d="M 3.84375 0 L 3.84375 -55.125 L 15.1875 -55.125 L 15.1875 0 Z M 3.84375 0 "/></g></g></g><g fill="#ffffff" fill-opacity="1"><g transform="translate(410.204832, 79.753192)"><g><path d="M 37.109375 -14.875 L 13.265625 -14.875 C 13.265625 -12.5625 14.007812 -10.847656 15.5 -9.734375 C 17 -8.628906 18.625 -8.078125 20.375 -8.078125 C 22.21875 -8.078125 23.671875 -8.320312 24.734375 -8.8125 C 25.804688 -9.300781 27.023438 -10.273438 28.390625 -11.734375 L 36.59375 -7.625 C 33.175781 -1.894531 27.492188 0.96875 19.546875 0.96875 C 14.585938 0.96875 10.332031 -0.726562 6.78125 -4.125 C 3.238281 -7.53125 1.46875 -11.625 1.46875 -16.40625 C 1.46875 -21.195312 3.238281 -25.300781 6.78125 -28.71875 C 10.332031 -32.132812 14.585938 -33.84375 19.546875 -33.84375 C 24.765625 -33.84375 29.003906 -32.332031 32.265625 -29.3125 C 35.535156 -26.300781 37.171875 -22 37.171875 -16.40625 C 37.171875 -15.632812 37.148438 -15.125 37.109375 -14.875 Z M 13.59375 -21.15625 L 26.09375 -21.15625 C 25.832031 -22.863281 25.15625 -24.175781 24.0625 -25.09375 C 22.976562 -26.007812 21.582031 -26.46875 19.875 -26.46875 C 17.988281 -26.46875 16.488281 -25.972656 15.375 -24.984375 C 14.269531 -24.003906 13.675781 -22.726562 13.59375 -21.15625 Z M 13.59375 -21.15625 "/></g></g></g><g fill="#ffffff" fill-opacity="1"><g transform="translate(17.016464, 140.647988)"><g><path d="M 4.9375 -51.203125 C 6.257812 -52.535156 7.835938 -53.203125 9.671875 -53.203125 C 11.515625 -53.203125 13.097656 -52.535156 14.421875 -51.203125 C 15.742188 -49.878906 16.40625 -48.300781 16.40625 -46.46875 C 16.40625 -44.632812 15.742188 -43.050781 14.421875 -41.71875 C 13.097656 -40.394531 11.515625 -39.734375 9.671875 -39.734375 C 7.835938 -39.734375 6.257812 -40.394531 4.9375 -41.71875 C 3.613281 -43.050781 2.953125 -44.632812 2.953125 -46.46875 C 2.953125 -48.300781 3.613281 -49.878906 4.9375 -51.203125 Z M 3.84375 -32.875 L 3.84375 0 L 15.1875 0 L 15.1875 -32.875 Z M 3.84375 -32.875 "/></g></g></g><g fill="#ffffff" fill-opacity="1"><g transform="translate(33.169623, 140.647988)"><g><path d="M 3.84375 0 L 3.84375 -32.875 L 15.1875 -32.875 L 15.1875 -29.421875 L 15.3125 -29.421875 C 18.257812 -32.367188 21.398438 -33.84375 24.734375 -33.84375 C 27.128906 -33.84375 29.375 -33.347656 31.46875 -32.359375 C 33.5625 -31.378906 35.144531 -29.863281 36.21875 -27.8125 C 39.550781 -31.832031 43.179688 -33.84375 47.109375 -33.84375 C 50.609375 -33.84375 53.617188 -32.859375 56.140625 -30.890625 C 58.660156 -28.921875 59.921875 -25.84375 59.921875 -21.65625 L 59.921875 0 L 48.578125 0 L 48.578125 -18.59375 C 48.578125 -20.34375 48.097656 -21.800781 47.140625 -22.96875 C 46.179688 -24.144531 44.738281 -24.734375 42.8125 -24.734375 C 41.144531 -24.734375 39.875 -24.234375 39 -23.234375 C 38.125 -22.234375 37.644531 -21.023438 37.5625 -19.609375 L 37.5625 0 L 26.21875 0 L 26.21875 -18.59375 C 26.21875 -20.34375 25.734375 -21.800781 24.765625 -22.96875 C 23.804688 -24.144531 22.367188 -24.734375 20.453125 -24.734375 C 18.691406 -24.734375 17.375 -24.1875 16.5 -23.09375 C 15.625 -22.007812 15.1875 -20.722656 15.1875 -19.234375 L 15.1875 0 Z M 3.84375 0 "/></g></g></g><g fill="#ffffff" fill-opacity="1"><g transform="translate(93.102969, 140.647988)"><g><path d="M 6.078125 -4.0625 C 3.003906 -7.414062 1.46875 -11.53125 1.46875 -16.40625 C 1.46875 -21.28125 3.003906 -25.40625 6.078125 -28.78125 C 9.160156 -32.15625 13.070312 -33.84375 17.8125 -33.84375 C 22.175781 -33.84375 25.765625 -32.472656 28.578125 -29.734375 L 28.578125 -32.875 L 39.9375 -32.875 L 39.9375 0 L 28.71875 0 L 28.71875 -3.71875 L 28.578125 -3.71875 C 25.765625 -0.59375 22.175781 0.96875 17.8125 0.96875 C 13.070312 0.96875 9.160156 -0.707031 6.078125 -4.0625 Z M 15.734375 -21.984375 C 14.265625 -20.535156 13.53125 -18.675781 13.53125 -16.40625 C 13.53125 -14.144531 14.234375 -12.296875 15.640625 -10.859375 C 17.046875 -9.429688 18.90625 -8.71875 21.21875 -8.71875 C 23.4375 -8.71875 25.257812 -9.441406 26.6875 -10.890625 C 28.125 -12.347656 28.84375 -14.1875 28.84375 -16.40625 C 28.84375 -18.675781 28.101562 -20.535156 26.625 -21.984375 C 25.15625 -23.429688 23.351562 -24.15625 21.21875 -24.15625 C 19.039062 -24.15625 17.210938 -23.429688 15.734375 -21.984375 Z M 15.734375 -21.984375 "/></g></g></g><g fill="#ffffff" fill-opacity="1"><g transform="translate(133.678165, 140.647988)"><g><path d="M 2.375 8.078125 L 11.671875 3.53125 C 13.378906 6.34375 16.347656 7.75 20.578125 7.75 C 22.535156 7.75 24.359375 7.117188 26.046875 5.859375 C 27.734375 4.597656 28.578125 2.664062 28.578125 0.0625 L 28.578125 -2.375 C 26.578125 -0.144531 22.988281 0.96875 17.8125 0.96875 C 13.070312 0.96875 9.160156 -0.707031 6.078125 -4.0625 C 3.003906 -7.414062 1.46875 -11.53125 1.46875 -16.40625 C 1.46875 -21.28125 3.003906 -25.40625 6.078125 -28.78125 C 9.160156 -32.15625 13.070312 -33.84375 17.8125 -33.84375 C 22.039062 -33.84375 25.566406 -32.539062 28.390625 -29.9375 L 28.578125 -29.9375 L 28.578125 -32.875 L 39.9375 -32.875 L 39.9375 0.890625 C 39.9375 6.234375 38.160156 10.359375 34.609375 13.265625 C 31.066406 16.171875 26.390625 17.625 20.578125 17.625 C 11.171875 17.625 5.101562 14.441406 2.375 8.078125 Z M 15.734375 -21.984375 C 14.265625 -20.535156 13.53125 -18.675781 13.53125 -16.40625 C 13.53125 -14.144531 14.234375 -12.296875 15.640625 -10.859375 C 17.046875 -9.429688 18.90625 -8.71875 21.21875 -8.71875 C 23.4375 -8.71875 25.257812 -9.441406 26.6875 -10.890625 C 28.125 -12.347656 28.84375 -14.1875 28.84375 -16.40625 C 28.84375 -18.675781 28.101562 -20.535156 26.625 -21.984375 C 25.15625 -23.429688 23.351562 -24.15625 21.21875 -24.15625 C 19.039062 -24.15625 17.210938 -23.429688 15.734375 -21.984375 Z M 15.734375 -21.984375 "/></g></g></g><g fill="#ffffff" fill-opacity="1"><g transform="translate(174.253369, 140.647988)"><g><path d="M 37.109375 -14.875 L 13.265625 -14.875 C 13.265625 -12.5625 14.007812 -10.847656 15.5 -9.734375 C 17 -8.628906 18.625 -8.078125 20.375 -8.078125 C 22.21875 -8.078125 23.671875 -8.320312 24.734375 -8.8125 C 25.804688 -9.300781 27.023438 -10.273438 28.390625 -11.734375 L 36.59375 -7.625 C 33.175781 -1.894531 27.492188 0.96875 19.546875 0.96875 C 14.585938 0.96875 10.332031 -0.726562 6.78125 -4.125 C 3.238281 -7.53125 1.46875 -11.625 1.46875 -16.40625 C 1.46875 -21.195312 3.238281 -25.300781 6.78125 -28.71875 C 10.332031 -32.132812 14.585938 -33.84375 19.546875 -33.84375 C 24.765625 -33.84375 29.003906 -32.332031 32.265625 -29.3125 C 35.535156 -26.300781 37.171875 -22 37.171875 -16.40625 C 37.171875 -15.632812 37.148438 -15.125 37.109375 -14.875 Z M 13.59375 -21.15625 L 26.09375 -21.15625 C 25.832031 -22.863281 25.15625 -24.175781 24.0625 -25.09375 C 22.976562 -26.007812 21.582031 -26.46875 19.875 -26.46875 C 17.988281 -26.46875 16.488281 -25.972656 15.375 -24.984375 C 14.269531 -24.003906 13.675781 -22.726562 13.59375 -21.15625 Z M 13.59375 -21.15625 "/></g></g></g><g fill="#ffffff" fill-opacity="1"><g transform="translate(209.700571, 140.647988)"><g><path d="M 18.140625 -33.84375 C 20.015625 -33.84375 21.867188 -33.628906 23.703125 -33.203125 C 25.546875 -32.773438 26.914062 -32.347656 27.8125 -31.921875 L 29.15625 -31.28125 L 25.4375 -23.84375 C 22.875 -25.207031 20.441406 -25.890625 18.140625 -25.890625 C 16.859375 -25.890625 15.945312 -25.75 15.40625 -25.46875 C 14.875 -25.195312 14.609375 -24.675781 14.609375 -23.90625 C 14.609375 -23.738281 14.628906 -23.566406 14.671875 -23.390625 C 14.710938 -23.222656 14.796875 -23.0625 14.921875 -22.90625 C 15.054688 -22.757812 15.175781 -22.632812 15.28125 -22.53125 C 15.394531 -22.425781 15.578125 -22.304688 15.828125 -22.171875 C 16.085938 -22.046875 16.289062 -21.953125 16.4375 -21.890625 C 16.59375 -21.828125 16.835938 -21.726562 17.171875 -21.59375 C 17.515625 -21.46875 17.769531 -21.375 17.9375 -21.3125 C 18.113281 -21.25 18.40625 -21.148438 18.8125 -21.015625 C 19.21875 -20.890625 19.523438 -20.804688 19.734375 -20.765625 C 21.066406 -20.378906 22.222656 -19.953125 23.203125 -19.484375 C 24.179688 -19.015625 25.210938 -18.375 26.296875 -17.5625 C 27.390625 -16.75 28.234375 -15.722656 28.828125 -14.484375 C 29.429688 -13.242188 29.734375 -11.832031 29.734375 -10.25 C 29.734375 -2.769531 24.546875 0.96875 14.171875 0.96875 C 11.816406 0.96875 9.582031 0.601562 7.46875 -0.125 C 5.351562 -0.851562 3.828125 -1.582031 2.890625 -2.3125 L 1.46875 -3.46875 L 6.09375 -11.21875 C 6.4375 -10.914062 6.882812 -10.5625 7.4375 -10.15625 C 7.988281 -9.75 8.988281 -9.191406 10.4375 -8.484375 C 11.894531 -7.785156 13.160156 -7.4375 14.234375 -7.4375 C 16.578125 -7.4375 17.75 -8.226562 17.75 -9.8125 C 17.75 -10.53125 17.445312 -11.09375 16.84375 -11.5 C 16.25 -11.90625 15.238281 -12.363281 13.8125 -12.875 C 12.382812 -13.394531 11.265625 -13.867188 10.453125 -14.296875 C 8.398438 -15.359375 6.773438 -16.5625 5.578125 -17.90625 C 4.378906 -19.257812 3.78125 -21.046875 3.78125 -23.265625 C 3.78125 -26.597656 5.070312 -29.191406 7.65625 -31.046875 C 10.238281 -32.910156 13.734375 -33.84375 18.140625 -33.84375 Z M 18.140625 -33.84375 "/></g></g></g><g fill="#ffffff" fill-opacity="1"><g transform="translate(238.032706, 140.647988)"><g/></g></g><g fill="#ffffff" fill-opacity="1"><g transform="translate(252.326973, 140.647988)"><g><path d="M 1.859375 -13.90625 C 1.859375 -15.488281 2.21875 -17.003906 2.9375 -18.453125 C 3.664062 -19.910156 4.691406 -21.238281 6.015625 -22.4375 C 7.347656 -23.632812 8.695312 -24.679688 10.0625 -25.578125 C 11.425781 -26.472656 12.984375 -27.390625 14.734375 -28.328125 C 11.191406 -32.773438 9.421875 -36.6875 9.421875 -40.0625 C 9.421875 -44.25 10.882812 -47.59375 13.8125 -50.09375 C 16.738281 -52.59375 20.894531 -53.84375 26.28125 -53.84375 C 31.238281 -53.84375 35.09375 -52.453125 37.84375 -49.671875 C 40.601562 -46.890625 41.984375 -43.6875 41.984375 -40.0625 C 41.984375 -38.5625 41.617188 -37.09375 40.890625 -35.65625 C 40.160156 -34.226562 39.296875 -33.015625 38.296875 -32.015625 C 37.296875 -31.015625 36.28125 -30.128906 35.25 -29.359375 C 34.226562 -28.585938 33.351562 -28.007812 32.625 -27.625 L 31.53125 -27.046875 L 38.578125 -19.734375 C 40.117188 -20.421875 42.707031 -22.644531 46.34375 -26.40625 L 53.78125 -19.09375 C 51.382812 -16.363281 48.882812 -13.953125 46.28125 -11.859375 L 57.6875 0 L 42.5 0 L 37.234375 -5.453125 C 35.609375 -4.296875 34.410156 -3.472656 33.640625 -2.984375 C 32.878906 -2.492188 31.738281 -1.863281 30.21875 -1.09375 C 28.695312 -0.320312 27.132812 0.210938 25.53125 0.515625 C 23.9375 0.816406 22.175781 0.96875 20.25 0.96875 C 18.582031 0.96875 16.9375 0.828125 15.3125 0.546875 C 13.695312 0.265625 12.066406 -0.222656 10.421875 -0.921875 C 8.773438 -1.628906 7.332031 -2.515625 6.09375 -3.578125 C 4.851562 -4.648438 3.835938 -6.070312 3.046875 -7.84375 C 2.253906 -9.625 1.859375 -11.644531 1.859375 -13.90625 Z M 26.28125 -45.3125 C 24.738281 -45.3125 23.582031 -44.816406 22.8125 -43.828125 C 22.039062 -42.847656 21.65625 -41.59375 21.65625 -40.0625 C 21.65625 -39.164062 21.976562 -38.171875 22.625 -37.078125 C 23.269531 -35.984375 23.910156 -35.117188 24.546875 -34.484375 L 25.515625 -33.578125 C 29.441406 -35.722656 31.40625 -37.882812 31.40625 -40.0625 C 31.40625 -43.5625 29.695312 -45.3125 26.28125 -45.3125 Z M 29.421875 -13.453125 L 21.015625 -21.734375 C 20.890625 -21.679688 20.695312 -21.601562 20.4375 -21.5 C 20.1875 -21.394531 19.738281 -21.140625 19.09375 -20.734375 C 18.457031 -20.328125 17.90625 -19.878906 17.4375 -19.390625 C 16.96875 -18.898438 16.53125 -18.25 16.125 -17.4375 C 15.71875 -16.625 15.515625 -15.769531 15.515625 -14.875 C 15.515625 -13.457031 16.109375 -12.363281 17.296875 -11.59375 C 18.492188 -10.832031 19.882812 -10.453125 21.46875 -10.453125 C 22.75 -10.453125 24.050781 -10.695312 25.375 -11.1875 C 26.707031 -11.675781 27.710938 -12.175781 28.390625 -12.6875 Z M 29.421875 -13.453125 "/></g></g></g><g fill="#ffffff" fill-opacity="1"><g transform="translate(302.517159, 140.647988)"><g/></g></g><g fill="#ffffff" fill-opacity="1"><g transform="translate(316.811426, 140.647988)"><g><path d="M 18.140625 -33.84375 C 20.015625 -33.84375 21.867188 -33.628906 23.703125 -33.203125 C 25.546875 -32.773438 26.914062 -32.347656 27.8125 -31.921875 L 29.15625 -31.28125 L 25.4375 -23.84375 C 22.875 -25.207031 20.441406 -25.890625 18.140625 -25.890625 C 16.859375 -25.890625 15.945312 -25.75 15.40625 -25.46875 C 14.875 -25.195312 14.609375 -24.675781 14.609375 -23.90625 C 14.609375 -23.738281 14.628906 -23.566406 14.671875 -23.390625 C 14.710938 -23.222656 14.796875 -23.0625 14.921875 -22.90625 C 15.054688 -22.757812 15.175781 -22.632812 15.28125 -22.53125 C 15.394531 -22.425781 15.578125 -22.304688 15.828125 -22.171875 C 16.085938 -22.046875 16.289062 -21.953125 16.4375 -21.890625 C 16.59375 -21.828125 16.835938 -21.726562 17.171875 -21.59375 C 17.515625 -21.46875 17.769531 -21.375 17.9375 -21.3125 C 18.113281 -21.25 18.40625 -21.148438 18.8125 -21.015625 C 19.21875 -20.890625 19.523438 -20.804688 19.734375 -20.765625 C 21.066406 -20.378906 22.222656 -19.953125 23.203125 -19.484375 C 24.179688 -19.015625 25.210938 -18.375 26.296875 -17.5625 C 27.390625 -16.75 28.234375 -15.722656 28.828125 -14.484375 C 29.429688 -13.242188 29.734375 -11.832031 29.734375 -10.25 C 29.734375 -2.769531 24.546875 0.96875 14.171875 0.96875 C 11.816406 0.96875 9.582031 0.601562 7.46875 -0.125 C 5.351562 -0.851562 3.828125 -1.582031 2.890625 -2.3125 L 1.46875 -3.46875 L 6.09375 -11.21875 C 6.4375 -10.914062 6.882812 -10.5625 7.4375 -10.15625 C 7.988281 -9.75 8.988281 -9.191406 10.4375 -8.484375 C 11.894531 -7.785156 13.160156 -7.4375 14.234375 -7.4375 C 16.578125 -7.4375 17.75 -8.226562 17.75 -9.8125 C 17.75 -10.53125 17.445312 -11.09375 16.84375 -11.5 C 16.25 -11.90625 15.238281 -12.363281 13.8125 -12.875 C 12.382812 -13.394531 11.265625 -13.867188 10.453125 -14.296875 C 8.398438 -15.359375 6.773438 -16.5625 5.578125 -17.90625 C 4.378906 -19.257812 3.78125 -21.046875 3.78125 -23.265625 C 3.78125 -26.597656 5.070312 -29.191406 7.65625 -31.046875 C 10.238281 -32.910156 13.734375 -33.84375 18.140625 -33.84375 Z M 18.140625 -33.84375 "/></g></g></g><g fill="#ffffff" fill-opacity="1"><g transform="translate(345.143561, 140.647988)"><g><path d="M 37.109375 -14.875 L 13.265625 -14.875 C 13.265625 -12.5625 14.007812 -10.847656 15.5 -9.734375 C 17 -8.628906 18.625 -8.078125 20.375 -8.078125 C 22.21875 -8.078125 23.671875 -8.320312 24.734375 -8.8125 C 25.804688 -9.300781 27.023438 -10.273438 28.390625 -11.734375 L 36.59375 -7.625 C 33.175781 -1.894531 27.492188 0.96875 19.546875 0.96875 C 14.585938 0.96875 10.332031 -0.726562 6.78125 -4.125 C 3.238281 -7.53125 1.46875 -11.625 1.46875 -16.40625 C 1.46875 -21.195312 3.238281 -25.300781 6.78125 -28.71875 C 10.332031 -32.132812 14.585938 -33.84375 19.546875 -33.84375 C 24.765625 -33.84375 29.003906 -32.332031 32.265625 -29.3125 C 35.535156 -26.300781 37.171875 -22 37.171875 -16.40625 C 37.171875 -15.632812 37.148438 -15.125 37.109375 -14.875 Z M 13.59375 -21.15625 L 26.09375 -21.15625 C 25.832031 -22.863281 25.15625 -24.175781 24.0625 -25.09375 C 22.976562 -26.007812 21.582031 -26.46875 19.875 -26.46875 C 17.988281 -26.46875 16.488281 -25.972656 15.375 -24.984375 C 14.269531 -24.003906 13.675781 -22.726562 13.59375 -21.15625 Z M 13.59375 -21.15625 "/></g></g></g><g fill="#ffffff" fill-opacity="1"><g transform="translate(380.590763, 140.647988)"><g><path d="M 6.078125 -4.0625 C 3.003906 -7.414062 1.46875 -11.53125 1.46875 -16.40625 C 1.46875 -21.28125 3.003906 -25.40625 6.078125 -28.78125 C 9.160156 -32.15625 13.070312 -33.84375 17.8125 -33.84375 C 22.175781 -33.84375 25.765625 -32.472656 28.578125 -29.734375 L 28.578125 -32.875 L 39.9375 -32.875 L 39.9375 0 L 28.71875 0 L 28.71875 -3.71875 L 28.578125 -3.71875 C 25.765625 -0.59375 22.175781 0.96875 17.8125 0.96875 C 13.070312 0.96875 9.160156 -0.707031 6.078125 -4.0625 Z M 15.734375 -21.984375 C 14.265625 -20.535156 13.53125 -18.675781 13.53125 -16.40625 C 13.53125 -14.144531 14.234375 -12.296875 15.640625 -10.859375 C 17.046875 -9.429688 18.90625 -8.71875 21.21875 -8.71875 C 23.4375 -8.71875 25.257812 -9.441406 26.6875 -10.890625 C 28.125 -12.347656 28.84375 -14.1875 28.84375 -16.40625 C 28.84375 -18.675781 28.101562 -20.535156 26.625 -21.984375 C 25.15625 -23.429688 23.351562 -24.15625 21.21875 -24.15625 C 19.039062 -24.15625 17.210938 -23.429688 15.734375 -21.984375 Z M 15.734375 -21.984375 "/></g></g></g><g fill="#ffffff" fill-opacity="1"><g transform="translate(421.165953, 140.647988)"><g><path d="M 3.84375 0 L 3.84375 -32.875 L 15.1875 -32.875 L 15.1875 -28.140625 L 15.3125 -28.140625 C 15.40625 -28.304688 15.546875 -28.515625 15.734375 -28.765625 C 15.929688 -29.023438 16.347656 -29.472656 16.984375 -30.109375 C 17.628906 -30.753906 18.3125 -31.332031 19.03125 -31.84375 C 19.757812 -32.363281 20.703125 -32.828125 21.859375 -33.234375 C 23.015625 -33.640625 24.1875 -33.84375 25.375 -33.84375 C 26.613281 -33.84375 27.832031 -33.671875 29.03125 -33.328125 C 30.226562 -32.984375 31.101562 -32.640625 31.65625 -32.296875 L 32.5625 -31.796875 L 27.8125 -22.171875 C 26.40625 -23.367188 24.441406 -23.96875 21.921875 -23.96875 C 20.554688 -23.96875 19.378906 -23.664062 18.390625 -23.0625 C 17.410156 -22.46875 16.71875 -21.742188 16.3125 -20.890625 C 15.90625 -20.035156 15.613281 -19.304688 15.4375 -18.703125 C 15.269531 -18.109375 15.1875 -17.644531 15.1875 -17.3125 L 15.1875 0 Z M 3.84375 0 "/></g></g></g><g fill="#ffffff" fill-opacity="1"><g transform="translate(449.882671, 140.647988)"><g><path d="M 21.34375 -24.546875 C 19.207031 -24.546875 17.367188 -23.753906 15.828125 -22.171875 C 14.296875 -20.597656 13.53125 -18.695312 13.53125 -16.46875 C 13.53125 -14.207031 14.296875 -12.285156 15.828125 -10.703125 C 17.367188 -9.117188 19.207031 -8.328125 21.34375 -8.328125 C 22.363281 -8.328125 23.332031 -8.453125 24.25 -8.703125 C 25.175781 -8.960938 25.851562 -9.222656 26.28125 -9.484375 L 26.859375 -9.875 L 30.703125 -1.984375 C 30.398438 -1.773438 29.984375 -1.507812 29.453125 -1.1875 C 28.921875 -0.863281 27.703125 -0.425781 25.796875 0.125 C 23.898438 0.6875 21.859375 0.96875 19.671875 0.96875 C 14.847656 0.96875 10.609375 -0.726562 6.953125 -4.125 C 3.296875 -7.53125 1.46875 -11.601562 1.46875 -16.34375 C 1.46875 -21.125 3.296875 -25.234375 6.953125 -28.671875 C 10.609375 -32.117188 14.847656 -33.84375 19.671875 -33.84375 C 21.859375 -33.84375 23.867188 -33.582031 25.703125 -33.0625 C 27.535156 -32.550781 28.835938 -32.039062 29.609375 -31.53125 L 30.703125 -30.765625 L 26.859375 -23.015625 C 25.441406 -24.035156 23.601562 -24.546875 21.34375 -24.546875 Z M 21.34375 -24.546875 "/></g></g></g><g fill="#ffffff" fill-opacity="1"><g transform="translate(478.1507, 140.647988)"><g><path d="M 3.84375 0 L 3.84375 -55.125 L 15.1875 -55.125 L 15.1875 -29.421875 L 15.3125 -29.421875 C 18.257812 -32.367188 21.398438 -33.84375 24.734375 -33.84375 C 26.359375 -33.84375 27.972656 -33.628906 29.578125 -33.203125 C 31.179688 -32.773438 32.71875 -32.113281 34.1875 -31.21875 C 35.664062 -30.320312 36.863281 -29.050781 37.78125 -27.40625 C 38.695312 -25.757812 39.15625 -23.84375 39.15625 -21.65625 L 39.15625 0 L 27.8125 0 L 27.8125 -18.59375 C 27.8125 -20.300781 27.265625 -21.796875 26.171875 -23.078125 C 25.085938 -24.359375 23.671875 -25 21.921875 -25 C 20.210938 -25 18.660156 -24.332031 17.265625 -23 C 15.878906 -21.675781 15.1875 -20.207031 15.1875 -18.59375 L 15.1875 0 Z M 3.84375 0 "/></g></g></g><g fill="#ffffff" fill-opacity="1"><g transform="translate(517.315715, 140.647988)"><g><path d="M 11.15625 -13.71875 C 13.207031 -13.71875 14.945312 -13 16.375 -11.5625 C 17.800781 -10.132812 18.515625 -8.394531 18.515625 -6.34375 C 18.515625 -4.332031 17.800781 -2.609375 16.375 -1.171875 C 14.945312 0.253906 13.207031 0.96875 11.15625 0.96875 C 9.144531 0.96875 7.421875 0.253906 5.984375 -1.171875 C 4.554688 -2.609375 3.84375 -4.332031 3.84375 -6.34375 C 3.84375 -8.394531 4.554688 -10.132812 5.984375 -11.5625 C 7.421875 -13 9.144531 -13.71875 11.15625 -13.71875 Z M 11.15625 -13.71875 "/></g></g></g></svg>
