<svg xmlns="http://www.w3.org/2000/svg" xmlns:xlink="http://www.w3.org/1999/xlink" width="500" zoomAndPan="magnify" viewBox="0 0 375 374.999991" height="500" preserveAspectRatio="xMidYMid meet" version="1.0"><defs><g/></defs><rect x="-37.5" width="450" fill="#ffffff" y="-37.499999" height="449.999989" fill-opacity="1"/><rect x="-37.5" width="450" fill="#198754" y="-37.499999" height="449.999989" fill-opacity="1"/><g fill="#ffffff" fill-opacity="1"><g transform="translate(51.033258, 102.31481)"><g><path d="M 43.546875 -33.25 C 47.109375 -29.351562 48.890625 -24.585938 48.890625 -18.953125 C 48.890625 -13.328125 47.109375 -8.578125 43.546875 -4.703125 C 39.992188 -0.828125 35.476562 1.109375 30 1.109375 C 24.96875 1.109375 20.820312 -0.691406 17.5625 -4.296875 L 17.40625 -4.296875 L 17.40625 0 L 4.4375 0 L 4.4375 -63.703125 L 17.5625 -63.703125 L 17.5625 -34.375 C 20.820312 -37.53125 24.96875 -39.109375 30 -39.109375 C 35.476562 -39.109375 39.992188 -37.15625 43.546875 -33.25 Z M 32.515625 -12.546875 C 34.148438 -14.203125 34.96875 -16.335938 34.96875 -18.953125 C 34.96875 -21.578125 34.113281 -23.726562 32.40625 -25.40625 C 30.707031 -27.082031 28.597656 -27.921875 26.078125 -27.921875 C 23.609375 -27.921875 21.519531 -27.082031 19.8125 -25.40625 C 18.113281 -23.726562 17.265625 -21.582031 17.265625 -18.96875 C 17.265625 -16.394531 18.085938 -14.269531 19.734375 -12.59375 C 21.390625 -10.914062 23.503906 -10.078125 26.078125 -10.078125 C 28.742188 -10.078125 30.890625 -10.898438 32.515625 -12.546875 Z M 32.515625 -12.546875 "/></g></g></g><g fill="#ffffff" fill-opacity="1"><g transform="translate(97.922183, 102.31481)"><g><path d="M 42.890625 -17.1875 L 15.328125 -17.1875 C 15.328125 -14.519531 16.191406 -12.539062 17.921875 -11.25 C 19.648438 -9.96875 21.53125 -9.328125 23.5625 -9.328125 C 25.6875 -9.328125 27.363281 -9.609375 28.59375 -10.171875 C 29.832031 -10.742188 31.238281 -11.875 32.8125 -13.5625 L 42.296875 -8.8125 C 38.347656 -2.195312 31.78125 1.109375 22.59375 1.109375 C 16.863281 1.109375 11.945312 -0.851562 7.84375 -4.78125 C 3.75 -8.707031 1.703125 -13.4375 1.703125 -18.96875 C 1.703125 -24.5 3.75 -29.238281 7.84375 -33.1875 C 11.945312 -37.132812 16.863281 -39.109375 22.59375 -39.109375 C 28.613281 -39.109375 33.515625 -37.367188 37.296875 -33.890625 C 41.078125 -30.410156 42.96875 -25.4375 42.96875 -18.96875 C 42.96875 -18.070312 42.941406 -17.476562 42.890625 -17.1875 Z M 15.703125 -24.453125 L 30.15625 -24.453125 C 29.851562 -26.421875 29.070312 -27.9375 27.8125 -29 C 26.550781 -30.0625 24.9375 -30.59375 22.96875 -30.59375 C 20.789062 -30.59375 19.0625 -30.023438 17.78125 -28.890625 C 16.5 -27.753906 15.804688 -26.273438 15.703125 -24.453125 Z M 15.703125 -24.453125 "/></g></g></g><g fill="#ffffff" fill-opacity="1"><g transform="translate(138.885175, 102.31481)"><g><path d="M 6.671875 -38 L 6.671875 -52.15625 L 19.78125 -52.15625 L 19.78125 -38 L 27.78125 -38 L 27.78125 -28 L 19.78125 -28 L 19.78125 -15.921875 C 19.78125 -12.421875 20.765625 -10.671875 22.734375 -10.671875 C 23.234375 -10.671875 23.753906 -10.769531 24.296875 -10.96875 C 24.835938 -11.164062 25.257812 -11.363281 25.5625 -11.5625 L 26 -11.859375 L 29.265625 -1.265625 C 26.441406 0.316406 23.226562 1.109375 19.625 1.109375 C 17.15625 1.109375 15.03125 0.675781 13.25 -0.1875 C 11.476562 -1.050781 10.132812 -2.210938 9.21875 -3.671875 C 8.3125 -5.128906 7.660156 -6.660156 7.265625 -8.265625 C 6.867188 -9.867188 6.671875 -11.582031 6.671875 -13.40625 L 6.671875 -28 L 1.1875 -28 L 1.1875 -38 Z M 6.671875 -38 "/></g></g></g><g fill="#ffffff" fill-opacity="1"><g transform="translate(164.440756, 102.31481)"><g><path d="M 6.671875 -38 L 6.671875 -52.15625 L 19.78125 -52.15625 L 19.78125 -38 L 27.78125 -38 L 27.78125 -28 L 19.78125 -28 L 19.78125 -15.921875 C 19.78125 -12.421875 20.765625 -10.671875 22.734375 -10.671875 C 23.234375 -10.671875 23.753906 -10.769531 24.296875 -10.96875 C 24.835938 -11.164062 25.257812 -11.363281 25.5625 -11.5625 L 26 -11.859375 L 29.265625 -1.265625 C 26.441406 0.316406 23.226562 1.109375 19.625 1.109375 C 17.15625 1.109375 15.03125 0.675781 13.25 -0.1875 C 11.476562 -1.050781 10.132812 -2.210938 9.21875 -3.671875 C 8.3125 -5.128906 7.660156 -6.660156 7.265625 -8.265625 C 6.867188 -9.867188 6.671875 -11.582031 6.671875 -13.40625 L 6.671875 -28 L 1.1875 -28 L 1.1875 -38 Z M 6.671875 -38 "/></g></g></g><g fill="#ffffff" fill-opacity="1"><g transform="translate(189.996336, 102.31481)"><g><path d="M 42.890625 -17.1875 L 15.328125 -17.1875 C 15.328125 -14.519531 16.191406 -12.539062 17.921875 -11.25 C 19.648438 -9.96875 21.53125 -9.328125 23.5625 -9.328125 C 25.6875 -9.328125 27.363281 -9.609375 28.59375 -10.171875 C 29.832031 -10.742188 31.238281 -11.875 32.8125 -13.5625 L 42.296875 -8.8125 C 38.347656 -2.195312 31.78125 1.109375 22.59375 1.109375 C 16.863281 1.109375 11.945312 -0.851562 7.84375 -4.78125 C 3.75 -8.707031 1.703125 -13.4375 1.703125 -18.96875 C 1.703125 -24.5 3.75 -29.238281 7.84375 -33.1875 C 11.945312 -37.132812 16.863281 -39.109375 22.59375 -39.109375 C 28.613281 -39.109375 33.515625 -37.367188 37.296875 -33.890625 C 41.078125 -30.410156 42.96875 -25.4375 42.96875 -18.96875 C 42.96875 -18.070312 42.941406 -17.476562 42.890625 -17.1875 Z M 15.703125 -24.453125 L 30.15625 -24.453125 C 29.851562 -26.421875 29.070312 -27.9375 27.8125 -29 C 26.550781 -30.0625 24.9375 -30.59375 22.96875 -30.59375 C 20.789062 -30.59375 19.0625 -30.023438 17.78125 -28.890625 C 16.5 -27.753906 15.804688 -26.273438 15.703125 -24.453125 Z M 15.703125 -24.453125 "/></g></g></g><g fill="#ffffff" fill-opacity="1"><g transform="translate(230.959337, 102.31481)"><g><path d="M 4.4375 0 L 4.4375 -38 L 17.5625 -38 L 17.5625 -32.515625 L 17.703125 -32.515625 C 17.804688 -32.710938 17.96875 -32.957031 18.1875 -33.25 C 18.40625 -33.550781 18.882812 -34.070312 19.625 -34.8125 C 20.363281 -35.550781 21.15625 -36.21875 22 -36.8125 C 22.84375 -37.40625 23.929688 -37.9375 25.265625 -38.40625 C 26.597656 -38.875 27.953125 -39.109375 29.328125 -39.109375 C 30.765625 -39.109375 32.171875 -38.910156 33.546875 -38.515625 C 34.929688 -38.117188 35.945312 -37.722656 36.59375 -37.328125 L 37.625 -36.75 L 32.15625 -25.625 C 30.519531 -27.007812 28.242188 -27.703125 25.328125 -27.703125 C 23.753906 -27.703125 22.398438 -27.351562 21.265625 -26.65625 C 20.128906 -25.96875 19.328125 -25.128906 18.859375 -24.140625 C 18.390625 -23.160156 18.054688 -22.320312 17.859375 -21.625 C 17.660156 -20.9375 17.5625 -20.394531 17.5625 -20 L 17.5625 0 Z M 4.4375 0 "/></g></g></g><g fill="#ffffff" fill-opacity="1"><g transform="translate(264.144538, 102.31481)"><g><path d="M 12.890625 -15.859375 C 15.265625 -15.859375 17.273438 -15.03125 18.921875 -13.375 C 20.578125 -11.71875 21.40625 -9.703125 21.40625 -7.328125 C 21.40625 -0.0234375 17.257812 7.054688 8.96875 13.921875 L 5.1875 10.8125 C 5.53125 10.519531 5.960938 10.078125 6.484375 9.484375 C 7.003906 8.890625 7.769531 7.691406 8.78125 5.890625 C 9.789062 4.085938 10.46875 2.269531 10.8125 0.4375 C 8.9375 0 7.40625 -0.921875 6.21875 -2.328125 C 5.03125 -3.734375 4.4375 -5.398438 4.4375 -7.328125 C 4.4375 -9.703125 5.265625 -11.71875 6.921875 -13.375 C 8.578125 -15.03125 10.566406 -15.859375 12.890625 -15.859375 Z M 12.890625 -15.859375 "/></g></g></g><g fill="#ffffff" fill-opacity="1"><g transform="translate(286.292842, 102.31481)"><g/></g></g><g fill="#ffffff" fill-opacity="1"><g transform="translate(51.033258, 172.685178)"><g><path d="M 2.734375 9.328125 L 13.484375 4.078125 C 15.460938 7.335938 18.894531 8.96875 23.78125 8.96875 C 26.050781 8.96875 28.160156 8.238281 30.109375 6.78125 C 32.054688 5.320312 33.03125 3.085938 33.03125 0.078125 L 33.03125 -2.734375 C 30.71875 -0.171875 26.570312 1.109375 20.59375 1.109375 C 15.113281 1.109375 10.59375 -0.828125 7.03125 -4.703125 C 3.476562 -8.578125 1.703125 -13.328125 1.703125 -18.953125 C 1.703125 -24.585938 3.476562 -29.351562 7.03125 -33.25 C 10.59375 -37.15625 15.113281 -39.109375 20.59375 -39.109375 C 25.476562 -39.109375 29.550781 -37.601562 32.8125 -34.59375 L 33.03125 -34.59375 L 33.03125 -38 L 46.15625 -38 L 46.15625 1.03125 C 46.15625 7.207031 44.101562 11.972656 40 15.328125 C 35.90625 18.691406 30.5 20.375 23.78125 20.375 C 12.914062 20.375 5.898438 16.691406 2.734375 9.328125 Z M 18.171875 -25.40625 C 16.472656 -23.726562 15.625 -21.578125 15.625 -18.953125 C 15.625 -16.335938 16.4375 -14.203125 18.0625 -12.546875 C 19.695312 -10.898438 21.847656 -10.078125 24.515625 -10.078125 C 27.085938 -10.078125 29.195312 -10.914062 30.84375 -12.59375 C 32.5 -14.269531 33.328125 -16.394531 33.328125 -18.96875 C 33.328125 -21.582031 32.472656 -23.726562 30.765625 -25.40625 C 29.066406 -27.082031 26.984375 -27.921875 24.515625 -27.921875 C 21.992188 -27.921875 19.878906 -27.082031 18.171875 -25.40625 Z M 18.171875 -25.40625 "/></g></g></g><g fill="#ffffff" fill-opacity="1"><g transform="translate(97.922183, 172.685178)"><g><path d="M 8.03125 -4.515625 C 3.8125 -8.273438 1.703125 -13.09375 1.703125 -18.96875 C 1.703125 -24.84375 3.898438 -29.664062 8.296875 -33.4375 C 12.691406 -37.21875 18.125 -39.109375 24.59375 -39.109375 C 30.96875 -39.109375 36.335938 -37.207031 40.703125 -33.40625 C 45.078125 -29.601562 47.265625 -24.785156 47.265625 -18.953125 C 47.265625 -13.128906 45.128906 -8.328125 40.859375 -4.546875 C 36.585938 -0.773438 31.164062 1.109375 24.59375 1.109375 C 17.78125 1.109375 12.257812 -0.765625 8.03125 -4.515625 Z M 18.171875 -25.40625 C 16.472656 -23.726562 15.625 -21.578125 15.625 -18.953125 C 15.625 -16.335938 16.4375 -14.203125 18.0625 -12.546875 C 19.695312 -10.898438 21.847656 -10.078125 24.515625 -10.078125 C 27.085938 -10.078125 29.195312 -10.914062 30.84375 -12.59375 C 32.5 -14.269531 33.328125 -16.394531 33.328125 -18.96875 C 33.328125 -21.582031 32.472656 -23.726562 30.765625 -25.40625 C 29.066406 -27.082031 26.984375 -27.921875 24.515625 -27.921875 C 21.992188 -27.921875 19.878906 -27.082031 18.171875 -25.40625 Z M 18.171875 -25.40625 "/></g></g></g><g fill="#ffffff" fill-opacity="1"><g transform="translate(143.181477, 172.685178)"><g><path d="M 8.03125 -4.515625 C 3.8125 -8.273438 1.703125 -13.09375 1.703125 -18.96875 C 1.703125 -24.84375 3.898438 -29.664062 8.296875 -33.4375 C 12.691406 -37.21875 18.125 -39.109375 24.59375 -39.109375 C 30.96875 -39.109375 36.335938 -37.207031 40.703125 -33.40625 C 45.078125 -29.601562 47.265625 -24.785156 47.265625 -18.953125 C 47.265625 -13.128906 45.128906 -8.328125 40.859375 -4.546875 C 36.585938 -0.773438 31.164062 1.109375 24.59375 1.109375 C 17.78125 1.109375 12.257812 -0.765625 8.03125 -4.515625 Z M 18.171875 -25.40625 C 16.472656 -23.726562 15.625 -21.578125 15.625 -18.953125 C 15.625 -16.335938 16.4375 -14.203125 18.0625 -12.546875 C 19.695312 -10.898438 21.847656 -10.078125 24.515625 -10.078125 C 27.085938 -10.078125 29.195312 -10.914062 30.84375 -12.59375 C 32.5 -14.269531 33.328125 -16.394531 33.328125 -18.96875 C 33.328125 -21.582031 32.472656 -23.726562 30.765625 -25.40625 C 29.066406 -27.082031 26.984375 -27.921875 24.515625 -27.921875 C 21.992188 -27.921875 19.878906 -27.082031 18.171875 -25.40625 Z M 18.171875 -25.40625 "/></g></g></g><g fill="#ffffff" fill-opacity="1"><g transform="translate(188.440763, 172.685178)"><g><path d="M 2.734375 9.328125 L 13.484375 4.078125 C 15.460938 7.335938 18.894531 8.96875 23.78125 8.96875 C 26.050781 8.96875 28.160156 8.238281 30.109375 6.78125 C 32.054688 5.320312 33.03125 3.085938 33.03125 0.078125 L 33.03125 -2.734375 C 30.71875 -0.171875 26.570312 1.109375 20.59375 1.109375 C 15.113281 1.109375 10.59375 -0.828125 7.03125 -4.703125 C 3.476562 -8.578125 1.703125 -13.328125 1.703125 -18.953125 C 1.703125 -24.585938 3.476562 -29.351562 7.03125 -33.25 C 10.59375 -37.15625 15.113281 -39.109375 20.59375 -39.109375 C 25.476562 -39.109375 29.550781 -37.601562 32.8125 -34.59375 L 33.03125 -34.59375 L 33.03125 -38 L 46.15625 -38 L 46.15625 1.03125 C 46.15625 7.207031 44.101562 11.972656 40 15.328125 C 35.90625 18.691406 30.5 20.375 23.78125 20.375 C 12.914062 20.375 5.898438 16.691406 2.734375 9.328125 Z M 18.171875 -25.40625 C 16.472656 -23.726562 15.625 -21.578125 15.625 -18.953125 C 15.625 -16.335938 16.4375 -14.203125 18.0625 -12.546875 C 19.695312 -10.898438 21.847656 -10.078125 24.515625 -10.078125 C 27.085938 -10.078125 29.195312 -10.914062 30.84375 -12.59375 C 32.5 -14.269531 33.328125 -16.394531 33.328125 -18.96875 C 33.328125 -21.582031 32.472656 -23.726562 30.765625 -25.40625 C 29.066406 -27.082031 26.984375 -27.921875 24.515625 -27.921875 C 21.992188 -27.921875 19.878906 -27.082031 18.171875 -25.40625 Z M 18.171875 -25.40625 "/></g></g></g><g fill="#ffffff" fill-opacity="1"><g transform="translate(235.32968, 172.685178)"><g><path d="M 4.4375 0 L 4.4375 -63.703125 L 17.5625 -63.703125 L 17.5625 0 Z M 4.4375 0 "/></g></g></g><g fill="#ffffff" fill-opacity="1"><g transform="translate(253.625985, 172.685178)"><g><path d="M 42.890625 -17.1875 L 15.328125 -17.1875 C 15.328125 -14.519531 16.191406 -12.539062 17.921875 -11.25 C 19.648438 -9.96875 21.53125 -9.328125 23.5625 -9.328125 C 25.6875 -9.328125 27.363281 -9.609375 28.59375 -10.171875 C 29.832031 -10.742188 31.238281 -11.875 32.8125 -13.5625 L 42.296875 -8.8125 C 38.347656 -2.195312 31.78125 1.109375 22.59375 1.109375 C 16.863281 1.109375 11.945312 -0.851562 7.84375 -4.78125 C 3.75 -8.707031 1.703125 -13.4375 1.703125 -18.96875 C 1.703125 -24.5 3.75 -29.238281 7.84375 -33.1875 C 11.945312 -37.132812 16.863281 -39.109375 22.59375 -39.109375 C 28.613281 -39.109375 33.515625 -37.367188 37.296875 -33.890625 C 41.078125 -30.410156 42.96875 -25.4375 42.96875 -18.96875 C 42.96875 -18.070312 42.941406 -17.476562 42.890625 -17.1875 Z M 15.703125 -24.453125 L 30.15625 -24.453125 C 29.851562 -26.421875 29.070312 -27.9375 27.8125 -29 C 26.550781 -30.0625 24.9375 -30.59375 22.96875 -30.59375 C 20.789062 -30.59375 19.0625 -30.023438 17.78125 -28.890625 C 16.5 -27.753906 15.804688 -26.273438 15.703125 -24.453125 Z M 15.703125 -24.453125 "/></g></g></g><g fill="#ffffff" fill-opacity="1"><g transform="translate(294.593106, 172.685178)"><g/></g></g><g fill="#ffffff" fill-opacity="1"><g transform="translate(51.033258, 243.055546)"><g><path d="M 5.703125 -59.1875 C 7.234375 -60.71875 9.0625 -61.484375 11.1875 -61.484375 C 13.3125 -61.484375 15.140625 -60.71875 16.671875 -59.1875 C 18.203125 -57.65625 18.96875 -55.828125 18.96875 -53.703125 C 18.96875 -51.578125 18.203125 -49.75 16.671875 -48.21875 C 15.140625 -46.6875 13.3125 -45.921875 11.1875 -45.921875 C 9.0625 -45.921875 7.234375 -46.6875 5.703125 -48.21875 C 4.171875 -49.75 3.40625 -51.578125 3.40625 -53.703125 C 3.40625 -55.828125 4.171875 -57.65625 5.703125 -59.1875 Z M 4.4375 -38 L 4.4375 0 L 17.5625 0 L 17.5625 -38 Z M 4.4375 -38 "/></g></g></g><g fill="#ffffff" fill-opacity="1"><g transform="translate(69.699939, 243.055546)"><g><path d="M 4.4375 0 L 4.4375 -38 L 17.5625 -38 L 17.5625 -34 L 17.703125 -34 C 21.109375 -37.40625 24.738281 -39.109375 28.59375 -39.109375 C 31.363281 -39.109375 33.957031 -38.539062 36.375 -37.40625 C 38.789062 -36.269531 40.617188 -34.519531 41.859375 -32.15625 C 45.703125 -36.789062 49.898438 -39.109375 54.453125 -39.109375 C 58.492188 -39.109375 61.972656 -37.972656 64.890625 -35.703125 C 67.804688 -33.429688 69.265625 -29.875 69.265625 -25.03125 L 69.265625 0 L 56.15625 0 L 56.15625 -21.484375 C 56.15625 -23.503906 55.597656 -25.191406 54.484375 -26.546875 C 53.367188 -27.910156 51.703125 -28.59375 49.484375 -28.59375 C 47.554688 -28.59375 46.085938 -28.007812 45.078125 -26.84375 C 44.066406 -25.6875 43.507812 -24.296875 43.40625 -22.671875 L 43.40625 0 L 30.296875 0 L 30.296875 -21.484375 C 30.296875 -23.503906 29.738281 -25.191406 28.625 -26.546875 C 27.519531 -27.910156 25.851562 -28.59375 23.625 -28.59375 C 21.601562 -28.59375 20.085938 -27.960938 19.078125 -26.703125 C 18.066406 -25.441406 17.5625 -23.945312 17.5625 -22.21875 L 17.5625 0 Z M 4.4375 0 "/></g></g></g><g fill="#ffffff" fill-opacity="1"><g transform="translate(138.959249, 243.055546)"><g><path d="M 7.03125 -4.703125 C 3.476562 -8.578125 1.703125 -13.328125 1.703125 -18.953125 C 1.703125 -24.585938 3.476562 -29.351562 7.03125 -33.25 C 10.59375 -37.15625 15.113281 -39.109375 20.59375 -39.109375 C 25.632812 -39.109375 29.78125 -37.53125 33.03125 -34.375 L 33.03125 -38 L 46.15625 -38 L 46.15625 0 L 33.1875 0 L 33.1875 -4.296875 L 33.03125 -4.296875 C 29.78125 -0.691406 25.632812 1.109375 20.59375 1.109375 C 15.113281 1.109375 10.59375 -0.828125 7.03125 -4.703125 Z M 18.171875 -25.40625 C 16.472656 -23.726562 15.625 -21.578125 15.625 -18.953125 C 15.625 -16.335938 16.4375 -14.203125 18.0625 -12.546875 C 19.695312 -10.898438 21.847656 -10.078125 24.515625 -10.078125 C 27.085938 -10.078125 29.195312 -10.914062 30.84375 -12.59375 C 32.5 -14.269531 33.328125 -16.394531 33.328125 -18.96875 C 33.328125 -21.582031 32.472656 -23.726562 30.765625 -25.40625 C 29.066406 -27.082031 26.984375 -27.921875 24.515625 -27.921875 C 21.992188 -27.921875 19.878906 -27.082031 18.171875 -25.40625 Z M 18.171875 -25.40625 "/></g></g></g><g fill="#ffffff" fill-opacity="1"><g transform="translate(185.848174, 243.055546)"><g><path d="M 2.734375 9.328125 L 13.484375 4.078125 C 15.460938 7.335938 18.894531 8.96875 23.78125 8.96875 C 26.050781 8.96875 28.160156 8.238281 30.109375 6.78125 C 32.054688 5.320312 33.03125 3.085938 33.03125 0.078125 L 33.03125 -2.734375 C 30.71875 -0.171875 26.570312 1.109375 20.59375 1.109375 C 15.113281 1.109375 10.59375 -0.828125 7.03125 -4.703125 C 3.476562 -8.578125 1.703125 -13.328125 1.703125 -18.953125 C 1.703125 -24.585938 3.476562 -29.351562 7.03125 -33.25 C 10.59375 -37.15625 15.113281 -39.109375 20.59375 -39.109375 C 25.476562 -39.109375 29.550781 -37.601562 32.8125 -34.59375 L 33.03125 -34.59375 L 33.03125 -38 L 46.15625 -38 L 46.15625 1.03125 C 46.15625 7.207031 44.101562 11.972656 40 15.328125 C 35.90625 18.691406 30.5 20.375 23.78125 20.375 C 12.914062 20.375 5.898438 16.691406 2.734375 9.328125 Z M 18.171875 -25.40625 C 16.472656 -23.726562 15.625 -21.578125 15.625 -18.953125 C 15.625 -16.335938 16.4375 -14.203125 18.0625 -12.546875 C 19.695312 -10.898438 21.847656 -10.078125 24.515625 -10.078125 C 27.085938 -10.078125 29.195312 -10.914062 30.84375 -12.59375 C 32.5 -14.269531 33.328125 -16.394531 33.328125 -18.96875 C 33.328125 -21.582031 32.472656 -23.726562 30.765625 -25.40625 C 29.066406 -27.082031 26.984375 -27.921875 24.515625 -27.921875 C 21.992188 -27.921875 19.878906 -27.082031 18.171875 -25.40625 Z M 18.171875 -25.40625 "/></g></g></g><g fill="#ffffff" fill-opacity="1"><g transform="translate(232.737107, 243.055546)"><g><path d="M 42.890625 -17.1875 L 15.328125 -17.1875 C 15.328125 -14.519531 16.191406 -12.539062 17.921875 -11.25 C 19.648438 -9.96875 21.53125 -9.328125 23.5625 -9.328125 C 25.6875 -9.328125 27.363281 -9.609375 28.59375 -10.171875 C 29.832031 -10.742188 31.238281 -11.875 32.8125 -13.5625 L 42.296875 -8.8125 C 38.347656 -2.195312 31.78125 1.109375 22.59375 1.109375 C 16.863281 1.109375 11.945312 -0.851562 7.84375 -4.78125 C 3.75 -8.707031 1.703125 -13.4375 1.703125 -18.96875 C 1.703125 -24.5 3.75 -29.238281 7.84375 -33.1875 C 11.945312 -37.132812 16.863281 -39.109375 22.59375 -39.109375 C 28.613281 -39.109375 33.515625 -37.367188 37.296875 -33.890625 C 41.078125 -30.410156 42.96875 -25.4375 42.96875 -18.96875 C 42.96875 -18.070312 42.941406 -17.476562 42.890625 -17.1875 Z M 15.703125 -24.453125 L 30.15625 -24.453125 C 29.851562 -26.421875 29.070312 -27.9375 27.8125 -29 C 26.550781 -30.0625 24.9375 -30.59375 22.96875 -30.59375 C 20.789062 -30.59375 19.0625 -30.023438 17.78125 -28.890625 C 16.5 -27.753906 15.804688 -26.273438 15.703125 -24.453125 Z M 15.703125 -24.453125 "/></g></g></g><g fill="#ffffff" fill-opacity="1"><g transform="translate(273.700092, 243.055546)"><g><path d="M 20.96875 -39.109375 C 23.132812 -39.109375 25.28125 -38.859375 27.40625 -38.359375 C 29.53125 -37.867188 31.113281 -37.378906 32.15625 -36.890625 L 33.703125 -36.15625 L 29.40625 -27.5625 C 26.445312 -29.132812 23.632812 -29.921875 20.96875 -29.921875 C 19.476562 -29.921875 18.425781 -29.757812 17.8125 -29.4375 C 17.195312 -29.125 16.890625 -28.519531 16.890625 -27.625 C 16.890625 -27.425781 16.910156 -27.226562 16.953125 -27.03125 C 17.003906 -26.84375 17.101562 -26.660156 17.25 -26.484375 C 17.40625 -26.304688 17.546875 -26.15625 17.671875 -26.03125 C 17.796875 -25.914062 18.003906 -25.78125 18.296875 -25.625 C 18.585938 -25.476562 18.820312 -25.367188 19 -25.296875 C 19.175781 -25.222656 19.460938 -25.109375 19.859375 -24.953125 C 20.253906 -24.804688 20.546875 -24.695312 20.734375 -24.625 C 20.929688 -24.550781 21.265625 -24.441406 21.734375 -24.296875 C 22.210938 -24.148438 22.570312 -24.050781 22.8125 -24 C 24.34375 -23.550781 25.675781 -23.054688 26.8125 -22.515625 C 27.945312 -21.972656 29.144531 -21.234375 30.40625 -20.296875 C 31.664062 -19.359375 32.640625 -18.171875 33.328125 -16.734375 C 34.023438 -15.304688 34.375 -13.679688 34.375 -11.859375 C 34.375 -3.210938 28.375 1.109375 16.375 1.109375 C 13.65625 1.109375 11.070312 0.691406 8.625 -0.140625 C 6.1875 -0.984375 4.421875 -1.828125 3.328125 -2.671875 L 1.703125 -4 L 7.03125 -12.96875 C 7.425781 -12.613281 7.945312 -12.203125 8.59375 -11.734375 C 9.238281 -11.265625 10.398438 -10.625 12.078125 -9.8125 C 13.753906 -9 15.210938 -8.59375 16.453125 -8.59375 C 19.160156 -8.59375 20.515625 -9.503906 20.515625 -11.328125 C 20.515625 -12.171875 20.171875 -12.828125 19.484375 -13.296875 C 18.796875 -13.765625 17.625 -14.296875 15.96875 -14.890625 C 14.3125 -15.484375 13.015625 -16.023438 12.078125 -16.515625 C 9.703125 -17.753906 7.820312 -19.148438 6.4375 -20.703125 C 5.0625 -22.253906 4.375 -24.316406 4.375 -26.890625 C 4.375 -30.742188 5.863281 -33.742188 8.84375 -35.890625 C 11.832031 -38.035156 15.875 -39.109375 20.96875 -39.109375 Z M 20.96875 -39.109375 "/></g></g></g><g fill="#ffffff" fill-opacity="1"><g transform="translate(306.448264, 243.055546)"><g/></g></g><g fill="#ffffff" fill-opacity="1"><g transform="translate(51.033258, 313.425914)"><g><path d="M 20.96875 -39.109375 C 23.132812 -39.109375 25.28125 -38.859375 27.40625 -38.359375 C 29.53125 -37.867188 31.113281 -37.378906 32.15625 -36.890625 L 33.703125 -36.15625 L 29.40625 -27.5625 C 26.445312 -29.132812 23.632812 -29.921875 20.96875 -29.921875 C 19.476562 -29.921875 18.425781 -29.757812 17.8125 -29.4375 C 17.195312 -29.125 16.890625 -28.519531 16.890625 -27.625 C 16.890625 -27.425781 16.910156 -27.226562 16.953125 -27.03125 C 17.003906 -26.84375 17.101562 -26.660156 17.25 -26.484375 C 17.40625 -26.304688 17.546875 -26.15625 17.671875 -26.03125 C 17.796875 -25.914062 18.003906 -25.78125 18.296875 -25.625 C 18.585938 -25.476562 18.820312 -25.367188 19 -25.296875 C 19.175781 -25.222656 19.460938 -25.109375 19.859375 -24.953125 C 20.253906 -24.804688 20.546875 -24.695312 20.734375 -24.625 C 20.929688 -24.550781 21.265625 -24.441406 21.734375 -24.296875 C 22.210938 -24.148438 22.570312 -24.050781 22.8125 -24 C 24.34375 -23.550781 25.675781 -23.054688 26.8125 -22.515625 C 27.945312 -21.972656 29.144531 -21.234375 30.40625 -20.296875 C 31.664062 -19.359375 32.640625 -18.171875 33.328125 -16.734375 C 34.023438 -15.304688 34.375 -13.679688 34.375 -11.859375 C 34.375 -3.210938 28.375 1.109375 16.375 1.109375 C 13.65625 1.109375 11.070312 0.691406 8.625 -0.140625 C 6.1875 -0.984375 4.421875 -1.828125 3.328125 -2.671875 L 1.703125 -4 L 7.03125 -12.96875 C 7.425781 -12.613281 7.945312 -12.203125 8.59375 -11.734375 C 9.238281 -11.265625 10.398438 -10.625 12.078125 -9.8125 C 13.753906 -9 15.210938 -8.59375 16.453125 -8.59375 C 19.160156 -8.59375 20.515625 -9.503906 20.515625 -11.328125 C 20.515625 -12.171875 20.171875 -12.828125 19.484375 -13.296875 C 18.796875 -13.765625 17.625 -14.296875 15.96875 -14.890625 C 14.3125 -15.484375 13.015625 -16.023438 12.078125 -16.515625 C 9.703125 -17.753906 7.820312 -19.148438 6.4375 -20.703125 C 5.0625 -22.253906 4.375 -24.316406 4.375 -26.890625 C 4.375 -30.742188 5.863281 -33.742188 8.84375 -35.890625 C 11.832031 -38.035156 15.875 -39.109375 20.96875 -39.109375 Z M 20.96875 -39.109375 "/></g></g></g><g fill="#ffffff" fill-opacity="1"><g transform="translate(83.774024, 313.425914)"><g><path d="M 42.890625 -17.1875 L 15.328125 -17.1875 C 15.328125 -14.519531 16.191406 -12.539062 17.921875 -11.25 C 19.648438 -9.96875 21.53125 -9.328125 23.5625 -9.328125 C 25.6875 -9.328125 27.363281 -9.609375 28.59375 -10.171875 C 29.832031 -10.742188 31.238281 -11.875 32.8125 -13.5625 L 42.296875 -8.8125 C 38.347656 -2.195312 31.78125 1.109375 22.59375 1.109375 C 16.863281 1.109375 11.945312 -0.851562 7.84375 -4.78125 C 3.75 -8.707031 1.703125 -13.4375 1.703125 -18.96875 C 1.703125 -24.5 3.75 -29.238281 7.84375 -33.1875 C 11.945312 -37.132812 16.863281 -39.109375 22.59375 -39.109375 C 28.613281 -39.109375 33.515625 -37.367188 37.296875 -33.890625 C 41.078125 -30.410156 42.96875 -25.4375 42.96875 -18.96875 C 42.96875 -18.070312 42.941406 -17.476562 42.890625 -17.1875 Z M 15.703125 -24.453125 L 30.15625 -24.453125 C 29.851562 -26.421875 29.070312 -27.9375 27.8125 -29 C 26.550781 -30.0625 24.9375 -30.59375 22.96875 -30.59375 C 20.789062 -30.59375 19.0625 -30.023438 17.78125 -28.890625 C 16.5 -27.753906 15.804688 -26.273438 15.703125 -24.453125 Z M 15.703125 -24.453125 "/></g></g></g><g fill="#ffffff" fill-opacity="1"><g transform="translate(124.737017, 313.425914)"><g><path d="M 7.03125 -4.703125 C 3.476562 -8.578125 1.703125 -13.328125 1.703125 -18.953125 C 1.703125 -24.585938 3.476562 -29.351562 7.03125 -33.25 C 10.59375 -37.15625 15.113281 -39.109375 20.59375 -39.109375 C 25.632812 -39.109375 29.78125 -37.53125 33.03125 -34.375 L 33.03125 -38 L 46.15625 -38 L 46.15625 0 L 33.1875 0 L 33.1875 -4.296875 L 33.03125 -4.296875 C 29.78125 -0.691406 25.632812 1.109375 20.59375 1.109375 C 15.113281 1.109375 10.59375 -0.828125 7.03125 -4.703125 Z M 18.171875 -25.40625 C 16.472656 -23.726562 15.625 -21.578125 15.625 -18.953125 C 15.625 -16.335938 16.4375 -14.203125 18.0625 -12.546875 C 19.695312 -10.898438 21.847656 -10.078125 24.515625 -10.078125 C 27.085938 -10.078125 29.195312 -10.914062 30.84375 -12.59375 C 32.5 -14.269531 33.328125 -16.394531 33.328125 -18.96875 C 33.328125 -21.582031 32.472656 -23.726562 30.765625 -25.40625 C 29.066406 -27.082031 26.984375 -27.921875 24.515625 -27.921875 C 21.992188 -27.921875 19.878906 -27.082031 18.171875 -25.40625 Z M 18.171875 -25.40625 "/></g></g></g><g fill="#ffffff" fill-opacity="1"><g transform="translate(171.625942, 313.425914)"><g><path d="M 4.4375 0 L 4.4375 -38 L 17.5625 -38 L 17.5625 -32.515625 L 17.703125 -32.515625 C 17.804688 -32.710938 17.96875 -32.957031 18.1875 -33.25 C 18.40625 -33.550781 18.882812 -34.070312 19.625 -34.8125 C 20.363281 -35.550781 21.15625 -36.21875 22 -36.8125 C 22.84375 -37.40625 23.929688 -37.9375 25.265625 -38.40625 C 26.597656 -38.875 27.953125 -39.109375 29.328125 -39.109375 C 30.765625 -39.109375 32.171875 -38.910156 33.546875 -38.515625 C 34.929688 -38.117188 35.945312 -37.722656 36.59375 -37.328125 L 37.625 -36.75 L 32.15625 -25.625 C 30.519531 -27.007812 28.242188 -27.703125 25.328125 -27.703125 C 23.753906 -27.703125 22.398438 -27.351562 21.265625 -26.65625 C 20.128906 -25.96875 19.328125 -25.128906 18.859375 -24.140625 C 18.390625 -23.160156 18.054688 -22.320312 17.859375 -21.625 C 17.660156 -20.9375 17.5625 -20.394531 17.5625 -20 L 17.5625 0 Z M 4.4375 0 "/></g></g></g><g fill="#ffffff" fill-opacity="1"><g transform="translate(204.811151, 313.425914)"><g><path d="M 24.671875 -28.375 C 22.203125 -28.375 20.078125 -27.457031 18.296875 -25.625 C 16.515625 -23.800781 15.625 -21.601562 15.625 -19.03125 C 15.625 -16.414062 16.515625 -14.191406 18.296875 -12.359375 C 20.078125 -10.535156 22.203125 -9.625 24.671875 -9.625 C 25.859375 -9.625 26.976562 -9.769531 28.03125 -10.0625 C 29.09375 -10.363281 29.875 -10.664062 30.375 -10.96875 L 31.03125 -11.40625 L 35.484375 -2.296875 C 35.140625 -2.046875 34.65625 -1.734375 34.03125 -1.359375 C 33.414062 -0.992188 32.007812 -0.492188 29.8125 0.140625 C 27.613281 0.785156 25.253906 1.109375 22.734375 1.109375 C 17.160156 1.109375 12.257812 -0.851562 8.03125 -4.78125 C 3.8125 -8.707031 1.703125 -13.410156 1.703125 -18.890625 C 1.703125 -24.421875 3.8125 -29.171875 8.03125 -33.140625 C 12.257812 -37.117188 17.160156 -39.109375 22.734375 -39.109375 C 25.253906 -39.109375 27.578125 -38.8125 29.703125 -38.21875 C 31.828125 -37.625 33.332031 -37.035156 34.21875 -36.453125 L 35.484375 -35.5625 L 31.03125 -26.59375 C 29.40625 -27.78125 27.285156 -28.375 24.671875 -28.375 Z M 24.671875 -28.375 "/></g></g></g><g fill="#ffffff" fill-opacity="1"><g transform="translate(237.477843, 313.425914)"><g><path d="M 4.4375 0 L 4.4375 -63.703125 L 17.5625 -63.703125 L 17.5625 -34 L 17.703125 -34 C 21.109375 -37.40625 24.738281 -39.109375 28.59375 -39.109375 C 30.46875 -39.109375 32.332031 -38.859375 34.1875 -38.359375 C 36.039062 -37.867188 37.816406 -37.101562 39.515625 -36.0625 C 41.222656 -35.03125 42.609375 -33.5625 43.671875 -31.65625 C 44.734375 -29.757812 45.265625 -27.550781 45.265625 -25.03125 L 45.265625 0 L 32.15625 0 L 32.15625 -21.484375 C 32.15625 -23.460938 31.523438 -25.191406 30.265625 -26.671875 C 29.003906 -28.148438 27.359375 -28.890625 25.328125 -28.890625 C 23.359375 -28.890625 21.570312 -28.125 19.96875 -26.59375 C 18.363281 -25.0625 17.5625 -23.359375 17.5625 -21.484375 L 17.5625 0 Z M 4.4375 0 "/></g></g></g><g fill="#ffffff" fill-opacity="1"><g transform="translate(282.737138, 313.425914)"><g><path d="M 12.890625 -15.859375 C 15.265625 -15.859375 17.273438 -15.03125 18.921875 -13.375 C 20.578125 -11.71875 21.40625 -9.703125 21.40625 -7.328125 C 21.40625 -5.015625 20.578125 -3.03125 18.921875 -1.375 C 17.273438 0.28125 15.265625 1.109375 12.890625 1.109375 C 10.566406 1.109375 8.578125 0.28125 6.921875 -1.375 C 5.265625 -3.03125 4.4375 -5.015625 4.4375 -7.328125 C 4.4375 -9.703125 5.265625 -11.71875 6.921875 -13.375 C 8.578125 -15.03125 10.566406 -15.859375 12.890625 -15.859375 Z M 12.890625 -15.859375 "/></g></g></g></svg>